<svg id="logosandtypes_com" xmlns="http://www.w3.org/2000/svg" viewBox="0 0 150 150.2"><style>.st1{fill:#f07330}</style><g id="Layer_2"><path id="Layer_3" d="M0 .2h150v150H0V.2z" fill="none"/></g><g id="enphase"><path class="st1" d="M75.2 135.1c-23.5 0-45-13.6-55.3-35.1-1.8-3.8-.3-8.2 3.6-10 3.6-1.8 8.2 0 9.7 3.6 7.9 16.9 25.1 27.1 43.8 26.4 17.1-.8 32.5-10.7 39.9-26.6 1.8-3.8 6.1-5.4 10-3.6 3.8 1.8 5.4 6.1 3.6 10-9.7 20.7-29.9 34-53 35.1-.5.2-1.5.2-2.3.2zM127.9 80H22.5c-4.1 0-7.4-3.3-7.4-7.4 0-4.1 3.3-7.4 7.4-7.4H120c-3.6-22-22.8-38.6-45.8-38.6-17.4 0-33 9.5-40.9 24.8-1.8 3.6-6.4 5.1-10 3.1-3.6-1.8-5.1-6.4-3.1-10 10.5-20.5 31.2-33 54-33 33.8 0 61.2 27.4 61.2 61.2 0 2-.8 3.8-2.3 5.4-1.3 1.2-3.1 1.9-5.2 1.9z"/></g></svg>