<?xml version="1.0" encoding="UTF-8"?>
<svg version="1.1" xmlns="http://www.w3.org/2000/svg" width="1024" height="1024">
<path d="M0 0 C337.92 0 675.84 0 1024 0 C1024 337.92 1024 675.84 1024 1024 C686.08 1024 348.16 1024 0 1024 C0 686.08 0 348.16 0 0 Z " fill="#FEFEFE" transform="translate(0,0)"/>
<path d="M0 0 C3.75204779 1.74202219 5.47721528 2.79759515 7.1328125 6.60546875 C19.57166769 55.29630281 -23.13816344 120.63152882 -44.02288818 163.01647949 C-44.97703073 164.95337277 -45.92934127 166.89115762 -46.88134766 168.82910156 C-52.8431096 180.95315645 -58.90702424 193.01157065 -65.375 204.875 C-65.8685498 205.7837085 -66.36209961 206.69241699 -66.87060547 207.62866211 C-68.91124944 211.34957219 -70.96249475 215.01940862 -73.3125 218.5546875 C-79.91822305 228.78855389 -81.7879106 239.69025563 -84.23925781 251.48388672 C-85.48822615 257.25655745 -86.97018556 262.96719996 -88.4375 268.6875 C-91.42817768 280.49215676 -94.15241577 292.34577447 -96.8092041 304.22946167 C-96.95337769 304.87432526 -97.09755127 305.51918884 -97.24609375 306.18359375 C-97.39026733 306.82869904 -97.53444092 307.47380432 -97.6829834 308.13845825 C-101.23702286 324.01391137 -104.91882571 339.86047811 -108.9375 355.625 C-111.67439004 366.37719965 -114.07313832 377.19488676 -116.45184326 388.03045654 C-118.70784886 398.30091599 -121.05589723 408.53725864 -123.5625 418.75 C-127.06229406 433.02093674 -130.19774512 447.36142818 -133.29150391 461.72460938 C-134.17743394 465.82028041 -135.0848345 469.91077268 -136 474 C-135.53851563 473.06542969 -135.07703125 472.13085938 -134.6015625 471.16796875 C-132.42136643 466.76836036 -130.2145191 462.38241675 -128 458 C-127.61489258 457.23558594 -127.22978516 456.47117187 -126.83300781 455.68359375 C-113.22989302 428.81829436 -94.17880777 391.86052636 -64 381 C-57.27506637 380.31610844 -51.8995045 381.65859997 -46 385 C-35.8375137 393.34696587 -33.08266312 407.29863945 -31.54467773 419.65942383 C-31.06938193 424.54278434 -30.65668201 429.42907804 -30.27148438 434.3203125 C-29.4573118 443.33883952 -28.44876993 454.04538573 -22 461 C-15.2308685 462.3538263 -10.86559425 459.81894389 -5.15625 456.2578125 C0.35942732 452.31219184 5.16468308 447.73902327 10 443 C10.73089844 442.30777344 11.46179688 441.61554688 12.21484375 440.90234375 C17.63991767 435.67063881 22.33258757 429.9044364 27 424 C27.50805176 423.36304199 28.01610352 422.72608398 28.53955078 422.06982422 C45.75713139 400.45496615 60.88719237 377.47721484 75.61938477 354.11938477 C77 352 77 352 78 351 C78.41585261 348.46010021 78.77932125 345.92486486 79.125 343.375 C80.61161741 332.97648701 82.44453341 322.64764631 84.3125 312.3125 C84.538806 311.05854935 84.538806 311.05854935 84.76968384 309.77926636 C86.26738478 301.48721903 87.77857037 293.19766188 89.3006134 284.91004944 C89.84415369 281.94984451 90.38614765 278.98935693 90.92831421 276.02890015 C91.29856288 274.01336982 91.67216311 271.99848343 92.04614258 269.98364258 C93.38793492 262.6773821 94.49846842 255.41663369 95.26635742 248.02563477 C96.12950814 244.46589205 97.49402373 242.63563162 100 240 C103.25128121 238.3743594 106.49781865 238.31697419 110 239 C113.05495815 241.4821535 114.72466856 243.0041001 115.265625 246.92553711 C115.2192279 253.16667198 114.22965173 259.01733179 113 265.125 C112.53955244 267.50975959 112.08282936 269.89523993 111.62890625 272.28125 C111.44093224 273.26842514 111.44093224 273.26842514 111.24916077 274.27554321 C109.34373998 284.36794026 107.65472341 294.49926906 105.9375 304.625 C105.76279175 305.6525238 105.5880835 306.68004761 105.40808105 307.7387085 C103.29282454 320.1861418 101.2406993 332.63945095 99.30541992 345.11621094 C98.18163421 352.21715981 96.78429267 359.24250751 95.21777344 366.25878906 C94.55391929 369.24009771 94 371.93421737 94 375 C94.30550781 374.06285156 94.61101562 373.12570312 94.92578125 372.16015625 C105.26365747 341.29075888 121.21683798 299.5233783 151.84375 283.046875 C158.98016091 279.58209579 166.81003723 278.27802161 174.53125 280.83984375 C183.62543089 285.46479533 188.2700251 292.6514519 192.0546875 301.875 C199.1487819 325.32655174 191.71062246 352.53331261 180.875 373.5625 C174.06782259 386.25898381 164.97295502 397.64985303 155 408 C154.4436084 408.58749023 153.8872168 409.17498047 153.31396484 409.78027344 C139.38173093 424.43848654 124.34788696 435.49876747 107.10546875 445.9921875 C106.27990479 446.50144775 105.45434082 447.01070801 104.60375977 447.53540039 C102 449 102 449 99.05053711 450.21264648 C94.60151771 452.13715401 91.7224668 453.49452104 89.57250977 457.97460938 C88.53916649 461.7291856 87.81613617 465.47584686 87.1875 469.3125 C86.91889774 470.72623493 86.64513369 472.13899803 86.36645508 473.55078125 C85.80923384 476.38965255 85.27210014 479.23113067 84.75 482.07666016 C83.75675787 487.27242869 82.48978204 492.37502068 81.1875 497.5 C76.7277725 515.67760409 73.0448694 534.04173138 69.18994141 552.35449219 C68.13693257 557.35488653 67.07662623 562.35369001 66.01171875 567.3515625 C63.12548665 580.90105507 60.26684423 594.45580388 57.47509766 608.02514648 C55.89693587 615.69013796 54.29709191 623.35019243 52.68359375 631.0078125 C47.68875591 654.7444798 42.92366774 678.5079569 38.44863892 702.34785461 C37.32868201 708.29850971 36.17782394 714.24258789 35.0078125 720.18359375 C34.84204712 721.02536163 34.67628174 721.86712952 34.50549316 722.73440552 C34.17051066 724.43460244 33.83546836 726.13478759 33.50036621 727.83496094 C29.8678918 746.27470905 26.45461447 764.74968329 23.1307373 783.24742126 C22.54815804 786.48370395 21.96170253 789.71926587 21.37231445 792.95431519 C21.04351812 794.76088932 20.71781216 796.5680253 20.39257812 798.37524414 C20.22435547 799.27235107 20.05613281 800.16945801 19.8828125 801.09375 C19.7502002 801.81111328 19.61758789 802.52847656 19.48095703 803.26757812 C18.68930203 806.11914353 17.46029958 807.42814193 15 809 C11.43312122 810.13836557 9.75782253 810.33485181 6.3125 808.8125 C3.95397628 806.96392735 2.54336994 805.56038829 1 803 C0.30155777 794.63139215 2.48159491 785.67893515 3.828125 777.43359375 C4.19035688 775.19363122 4.55241359 772.95364035 4.91430664 770.71362305 C5.09663849 769.58822113 5.27897034 768.46281921 5.46682739 767.30331421 C6.26382799 762.36543228 7.04391087 757.42491683 7.82421875 752.484375 C13.87727019 714.27746545 20.2147244 676.11940151 27.11941528 638.05651855 C29.1718859 626.73959244 31.12833791 615.4107105 33 604.0625 C35.04768405 591.65653208 37.14382346 579.26043661 39.3125 566.875 C39.4544278 566.06443146 39.59635559 565.25386292 39.74258423 564.41873169 C41.56873429 554.00589191 43.4277857 543.59911813 45.3046875 533.1953125 C45.50227158 532.099841 45.69985565 531.00436951 45.90342712 529.8757019 C46.86728385 524.53491517 47.83356211 519.19458348 48.80395508 513.85498047 C49.16522049 511.861716 49.52614588 509.86838987 49.88671875 507.875 C50.0615126 506.90893829 50.23630646 505.94287659 50.41639709 504.94754028 C51.93763672 496.47581002 53.34845492 487.98670137 54.70939636 479.48779297 C54.86435074 478.53533691 55.01930511 477.58288086 55.17895508 476.6015625 C55.31384842 475.75932129 55.44874176 474.91708008 55.58772278 474.04931641 C56 472 56 472 57 470 C56.28714844 470.2165625 55.57429687 470.433125 54.83984375 470.65625 C43.80356837 473.86464231 43.80356837 473.86464231 39 473 C35.30625503 469.77779694 34.22030916 468.25576218 33.375 463.4375 C34.19279389 458.93963358 35.45953504 457.88416188 39 455 C42.30947148 453.44962666 45.71325749 452.31086321 49.1875 451.1875 C50.10208984 450.87619141 51.01667969 450.56488281 51.95898438 450.24414062 C58.64208448 448 58.64208448 448 61 448 C61.15033691 446.96782349 61.15033691 446.96782349 61.30371094 445.91479492 C63.13517128 433.43615439 65.01485179 421.01261421 67.78027344 408.7019043 C68.44566285 405.73141585 69 403.05596026 69 400 C68.65855957 400.47719482 68.31711914 400.95438965 67.96533203 401.44604492 C58.03949082 415.30065712 47.92270213 428.90698897 37 442 C36.55430664 442.54269531 36.10861328 443.08539062 35.64941406 443.64453125 C23.33331866 458.62333774 6.04597392 479.1660617 -14.44921875 481.37109375 C-21.51778307 481.61898177 -27.25314434 481.33284377 -33 477 C-33.60199219 476.54882812 -34.20398438 476.09765625 -34.82421875 475.6328125 C-48.33484184 463.85131471 -49.36769915 443.00992711 -50.72851562 426.4609375 C-51.74951086 412.70610746 -51.74951086 412.70610746 -58 401 C-62.91522398 401.21784926 -65.34889656 402.67043348 -68.875 406 C-69.65617187 406.721875 -70.43734375 407.44375 -71.2421875 408.1875 C-77.80122918 414.87660766 -83.54159664 421.79457249 -88.6875 429.625 C-89.28127441 430.52307373 -89.87504883 431.42114746 -90.48681641 432.34643555 C-99.99046393 446.91877891 -108.43778589 462.18909104 -115.96923828 477.86914062 C-117.09574473 480.19792989 -118.24869501 482.51266811 -119.40234375 484.828125 C-131.9009941 510.15532268 -142.33393713 536.43767416 -151.828125 563.01953125 C-156.26913391 575.37741036 -156.26913391 575.37741036 -158.6875 577.4375 C-162.17512399 578.28584097 -165.44341312 578.60615341 -169 578 C-171.96858157 575.79259319 -172.82865791 574.51402627 -174 571 C-174.52513371 563.95928818 -173.59431299 557.21854544 -172.3125 550.3125 C-172.13098389 549.30541992 -171.94946777 548.29833984 -171.76245117 547.26074219 C-170.39573511 539.816057 -168.85310336 532.41721498 -167.20605469 525.0300293 C-165.71164623 518.32013532 -164.28333766 511.5987773 -162.890625 504.8671875 C-155.83743749 470.79445624 -155.83743749 470.79445624 -152.16381836 455.93603516 C-150.16535729 447.8227363 -148.38314197 439.66791746 -146.625 431.5 C-144.24090431 420.43826054 -141.6977208 409.42692379 -139 398.4375 C-136.37670764 387.75028655 -133.84210719 377.05131864 -131.4375 366.3125 C-126.1346599 342.63117987 -120.55094658 319.02100903 -114.83203125 295.43701172 C-113.27634375 289.01067117 -111.73592693 282.58067085 -110.19458008 276.15087891 C-108.9903128 271.12731843 -107.7847239 266.10409272 -106.57421875 261.08203125 C-106.09101959 259.07555123 -105.60794817 257.06904045 -105.125 255.0625 C-104.88257568 254.05558105 -104.64015137 253.04866211 -104.39038086 252.01123047 C-102.92433004 245.90418151 -101.48054427 239.79231065 -100.0546875 233.67578125 C-96.43976693 218.17993169 -92.7137918 202.73625134 -88.62304688 187.35742188 C-86.51229977 179.37099002 -84.54363473 171.34929858 -82.66796875 163.3046875 C-79.25301778 148.711862 -75.41112774 134.32344074 -71 120 C-70.63390625 118.80600586 -70.2678125 117.61201172 -69.890625 116.38183594 C-40.87547719 22.39693634 -40.87547719 22.39693634 -12 1 C-8.28476614 -0.85761693 -4.05465209 -0.4415342 0 0 Z " fill="#030303" transform="translate(475,156)"/>
<path d="M0 0 C5.75547848 5.75547848 7.23973063 10.63438479 7.27929688 18.70166016 C7.26962891 19.6663623 7.25996094 20.63106445 7.25 21.625 C7.24033203 22.62192871 7.23066406 23.61885742 7.22070312 24.64599609 C6.80860545 49.78807527 -5.10737146 72.10672567 -21.67431641 90.52294922 C-22.93736865 91.93021737 -24.17830619 93.35724121 -25.41796875 94.78515625 C-29.96522524 99.9741942 -34.66360961 104.63386241 -40 109 C-40.52335938 109.43570313 -41.04671875 109.87140625 -41.5859375 110.3203125 C-50.32786377 117.58582455 -59.29687649 124.07945006 -69 130 C-70.16662123 126.50013631 -69.77780296 125.2395039 -68.8828125 121.71484375 C-68.61049805 120.64032959 -68.33818359 119.56581543 -68.05761719 118.45874023 C-67.74985352 117.29673096 -67.44208984 116.13472168 -67.125 114.9375 C-66.80692383 113.73101807 -66.48884766 112.52453613 -66.16113281 111.28149414 C-56.51874882 75.57352391 -41.130976 21.94683888 -7.54296875 1.109375 C-4.73667758 -0.11487491 -3.02472748 -0.43858548 0 0 Z " fill="#FCFCFC" transform="translate(643,455)"/>
<path d="M0 0 C2.83589749 8.50769246 -5.09732268 23.65909826 -7.9375 31.9375 C-8.17065918 32.61820557 -8.40381836 33.29891113 -8.64404297 34.00024414 C-16.89655085 57.9624455 -27.23855753 81.07198536 -38 104 C-38.41217773 104.88075195 -38.82435547 105.76150391 -39.24902344 106.66894531 C-41.48783767 111.45145661 -43.73749877 116.22865069 -46 121 C-47.29938052 117.10185843 -46.35061151 114.39930685 -45.3125 110.5625 C-45.09682373 109.75828613 -44.88114746 108.95407227 -44.65893555 108.12548828 C-36.60747287 79.16320444 -26.23138012 50.7574265 -13.3125 23.625 C-12.78986572 22.52534912 -12.26723145 21.42569824 -11.72875977 20.29272461 C-8.2771221 13.20007315 -4.37729291 6.56063406 0 0 Z " fill="#F3F3F3" transform="translate(463,184)"/>
<path d="M0 0 C0.33 0.66 0.66 1.32 1 2 C1.66 2.33 2.32 2.66 3 3 C1.68 6.96 0.36 10.92 -1 15 C-1.33 15 -1.66 15 -2 15 C-1.85816304 13.24967156 -1.71136571 11.49974466 -1.5625 9.75 C-1.48128906 8.77546875 -1.40007813 7.8009375 -1.31640625 6.796875 C-1.04925416 4.43538247 -0.64628032 2.28098935 0 0 Z " fill="#C1C1C1" transform="translate(570,519)"/>
<path d="M0 0 C0.33 0 0.66 0 1 0 C0.67 2.64 0.34 5.28 0 8 C-0.99 8 -1.98 8 -3 8 C-3.99 8.495 -3.99 8.495 -5 9 C-3.50164236 5.88802644 -1.86022073 2.91164984 0 0 Z " fill="#D6D6D6" transform="translate(544,554)"/>
</svg>
