<?xml version="1.0" encoding="UTF-8"?>
<svg version="1.1" xmlns="http://www.w3.org/2000/svg" width="500" height="500">
<path d="M0 0 C2.55363897 2.55363897 2.72376187 4.69351397 3.01953125 8.21484375 C2.92600942 21.55105654 -2.89889294 37.2353551 -9 49 C-7.92854736 49.0093457 -6.85709473 49.01869141 -5.75317383 49.02832031 C34.43378463 49.43884262 34.43378463 49.43884262 51 54 C51.69947754 54.18578613 52.39895508 54.37157227 53.11962891 54.56298828 C73.41392637 60.06499782 92.07153815 69.12430172 109.4375 80.875 C110.28554199 81.44686035 111.13358398 82.0187207 112.00732422 82.60791016 C113.17739014 83.41687744 113.17739014 83.41687744 114.37109375 84.2421875 C115.07161865 84.7254248 115.77214355 85.20866211 116.49389648 85.70654297 C116.99091064 86.13338379 117.4879248 86.56022461 118 87 C118 87.66 118 88.32 118 89 C118.8353125 89.37125 118.8353125 89.37125 119.6875 89.75 C122.42410913 91.22924818 124.67650869 92.93467439 127 95 C127 95.66 127 96.32 127 97 C128.32 97.66 129.64 98.32 131 99 C131 99.66 131 100.32 131 101 C131.66 101 132.32 101 133 101 C134.5078125 102.4609375 134.5078125 102.4609375 136.125 104.375 C136.93324219 105.31472656 136.93324219 105.31472656 137.7578125 106.2734375 C139 108 139 108 139 110 C139.66 110 140.32 110 141 110 C142.30932617 111.52197266 142.30932617 111.52197266 143.79296875 113.6640625 C144.33743652 114.44894043 144.8819043 115.23381836 145.44287109 116.04248047 C166.50165455 147.21513809 176.98269084 183.72633911 170.25 221.41796875 C165.03340276 248.02460684 152.15150168 274.59181605 132.50390625 293.4921875 C130.85427931 295.07361806 130.85427931 295.07361806 129.1875 297.4375 C128.795625 297.953125 128.40375 298.46875 128 299 C127.34 299 126.68 299 126 299 C126 299.66 126 300.32 126 301 C120.52380952 306 120.52380952 306 118 306 C118 306.66 118 307.32 118 308 C116.35 308.66 114.7 309.32 113 310 C113 310.66 113 311.32 113 312 C111.61401367 313.14160156 111.61401367 313.14160156 109.66796875 314.390625 C108.95761475 314.84993408 108.24726074 315.30924316 107.51538086 315.7824707 C106.74718018 316.26675537 105.97897949 316.75104004 105.1875 317.25 C104.40576416 317.74653076 103.62402832 318.24306152 102.81860352 318.75463867 C92.52308794 325.2460521 82.42079666 330.22904625 70.97265625 334.28857422 C69.14834726 334.94649951 67.33893608 335.64534578 65.53125 336.34765625 C49.50065143 342.47149472 33.01096028 344.63768917 16 346 C15.87367188 347.29035156 15.74734375 348.58070313 15.6171875 349.91015625 C15.07031938 354.82333461 14.14682655 359.60419773 13.125 364.4375 C12.03493923 369.67641007 10.98515044 374.90475267 10.17578125 380.1953125 C10.04993652 381.01459229 9.9240918 381.83387207 9.79443359 382.67797852 C9.56148542 384.23420616 9.33867771 385.79199526 9.12744141 387.35131836 C8.68600526 390.28825453 8.30999289 392.56380781 6.5703125 395.01171875 C5 396 5 396 2.4375 395.75 C-0 395 -0 395 -2 394 C-2.51673169 383.22159886 -0.93788815 373.24508863 1 362.6875 C1.2900835 361.06072861 1.5791527 359.43377601 1.8671875 357.80664062 C2.56647712 353.86891188 3.27934898 349.93387294 4 346 C3.3299292 346.01450195 2.6598584 346.02900391 1.96948242 346.04394531 C-4.69320601 346.12523301 -11.09513635 345.69176624 -17.6875 344.75 C-18.64374268 344.61505127 -19.59998535 344.48010254 -20.58520508 344.34106445 C-28.89727403 343.11225118 -36.92542532 341.34199289 -45 339 C-45.74846191 338.79004395 -46.49692383 338.58008789 -47.26806641 338.36376953 C-64.68488359 333.43610213 -79.72988823 325.60248163 -95 316 C-95.58104492 315.64228516 -96.16208984 315.28457031 -96.76074219 314.91601562 C-98.20984126 313.99856379 -99.61037514 313.00526054 -101 312 C-101 311.34 -101 310.68 -101 310 C-102.65 309.34 -104.3 308.68 -106 308 C-106 307.34 -106 306.68 -106 306 C-106.5775 305.731875 -107.155 305.46375 -107.75 305.1875 C-110.05550043 303.97070811 -112.02056192 302.69666121 -114 301 C-114 300.34 -114 299.68 -114 299 C-114.66 299 -115.32 299 -116 299 C-116 298.34 -116 297.68 -116 297 C-116.66 297 -117.32 297 -118 297 C-119.515625 295.49609375 -119.515625 295.49609375 -121.25 293.4375 C-121.81203125 292.77621094 -122.3740625 292.11492187 -122.953125 291.43359375 C-123.62859375 290.63050781 -124.3040625 289.82742188 -125 289 C-125.45721436 288.47712402 -125.91442871 287.95424805 -126.38549805 287.41552734 C-150.74082237 259.48118948 -162.21821237 223.86557358 -160 187 C-158.40740057 164.87331117 -150.88514108 143.47588561 -139 124.8125 C-138.5875 124.15314453 -138.175 123.49378906 -137.75 122.81445312 C-134.98375368 118.42735936 -132.15966454 114.11503609 -129 110 C-128.34 110 -127.68 110 -127 110 C-126.71125 109.401875 -126.4225 108.80375 -126.125 108.1875 C-125 106 -125 106 -123 103 C-122.34 103 -121.68 103 -121 103 C-120.67515625 102.17242187 -120.67515625 102.17242187 -120.34375 101.328125 C-118.53504366 98.19443611 -116.18448326 96.16603494 -113.5 93.75 C-113.00113281 93.29109375 -112.50226563 92.8321875 -111.98828125 92.359375 C-108.25897507 89 -108.25897507 89 -106 89 C-106 88.34 -106 87.68 -106 87 C-86.36560465 70.85975282 -61.16124592 58.17258431 -36 54 C-35.76667969 52.75734375 -35.53335938 51.5146875 -35.29296875 50.234375 C-33.96776334 44.29243731 -31.68850318 38.83900748 -29.3125 33.25 C-28.86841797 32.19466064 -28.42433594 31.13932129 -27.96679688 30.05200195 C-24.25247955 21.34439332 -20.26366469 12.89549703 -15 5 C-14.34 5 -13.68 5 -13 5 C-12.62875 4.071875 -12.62875 4.071875 -12.25 3.125 C-9.2596142 -1.95865586 -5.29356043 -1.17634676 0 0 Z M-10 17 C-9 19 -9 19 -9 19 Z M-11 19 C-10 21 -10 21 -10 21 Z M-12 21 C-12.66 22.0725 -13.32 23.145 -14 24.25 C-14.37125 24.85328125 -14.7425 25.4565625 -15.125 26.078125 C-16.27624023 28.25479385 -16.27624023 28.25479385 -16 32 C-16.66 32 -17.32 32 -18 32 C-19.00486895 34.95670218 -20.00306024 37.91561577 -21 40.875 C-21.28617188 41.71675781 -21.57234375 42.55851562 -21.8671875 43.42578125 C-22.13789063 44.23144531 -22.40859375 45.03710938 -22.6875 45.8671875 C-22.93886719 46.61081543 -23.19023437 47.35444336 -23.44921875 48.12060547 C-24.09374494 49.99347314 -24.09374494 49.99347314 -24 52 C-23.34 52 -22.68 52 -22 52 C-18.94729158 45.62443197 -16.18010788 39.15127554 -13.625 32.5625 C-13.35026855 31.87671875 -13.07553711 31.1909375 -12.79248047 30.484375 C-10.97074851 25.77102774 -10.97074851 25.77102774 -12 21 Z " fill="#FDAD59" transform="translate(244,69)"/>
<path d="M0 0 C-2.17917142 9.47012261 -4.4635971 18.8891679 -7.00390625 28.26953125 C-8.20139592 32.75424745 -9.32223015 37.25625139 -10.43408203 41.76269531 C-11.30627267 45.27999926 -12.20431333 48.78746868 -13.15234375 52.28515625 C-15.99098027 62.77537021 -18.44710186 73.3159479 -20.76245117 83.93408203 C-22.28511344 90.8859854 -23.91411583 97.79551499 -25.6875 104.6875 C-27.54417781 111.90952667 -29.01385025 119.12907441 -30.3203125 126.46875 C-31.0853387 130.44336887 -32.12820738 134.27478075 -33.25 138.16015625 C-34.15394181 141.58289426 -34.82798979 145.02444717 -35.5 148.5 C-36.52542186 153.79801294 -37.76859034 158.94006617 -39.25 164.125 C-40.14624753 167.56061551 -40.82533701 171.01424122 -41.5 174.5 C-42.33036455 178.78949979 -43.21907424 182.99216372 -44.4375 187.1875 C-47.80947709 199.1687803 -51.47651932 212.48589359 -50 225 C-48.93354885 226.29633621 -48.93354885 226.29633621 -46.4375 226.0625 C-45.2309375 226.0315625 -45.2309375 226.0315625 -44 226 C-41.39743857 220.39448308 -39.12847376 214.7346934 -37 208.9375 C-35.23733542 204.14811514 -33.38904971 199.52600926 -30.98046875 195.0234375 C-29.70578106 192.39280712 -28.7507626 189.68377875 -27.75 186.9375 C-21.67716229 170.86124557 -11.59399643 149.72933096 3 140 C5.375 140.1875 5.375 140.1875 7 141 C8.55856965 145.97319528 9.41910328 150.74793858 9.9375 155.9375 C10.87219568 164.14194646 12.14872983 170.78302545 18 177 C21.79008682 179.52672455 23.49197342 179.44341245 28 179 C36.51446501 176.36793509 43.53626743 169.2228434 49 162.4375 C49.99 161.2309375 49.99 161.2309375 51 160 C51.66 160 52.32 160 53 160 C53.25007812 159.45085937 53.50015625 158.90171875 53.7578125 158.3359375 C55.23403978 155.55988746 57.00109676 153.14946587 58.875 150.625 C61.68619563 146.8068852 64.42014201 142.97728106 67 139 C68.37652616 142.77168167 67.60432755 145.48952871 66.625 149.3125 C65.70436392 152.95821889 64.88844743 156.3713021 64.6875 160.125 C64 163 64 163 61.3125 164.8125 C55.08256881 167.04587156 55.08256881 167.04587156 52 168 C52 169.98 52 171.96 52 174 C55.37817425 174.84454356 57.67465243 175.10844919 61 174 C61.17930776 179.87066892 60.57167289 185.02896249 59.3125 190.75 C55.67196555 208.12655735 52.56382463 225.61202205 50.02319336 243.18310547 C49.10357101 249.49039453 47.96123113 255.73432557 46.75390625 261.9921875 C45.48874375 268.61325957 44.42995215 275.27104638 43.34082031 281.92285156 C42.83735764 284.99123294 42.32485394 288.0580926 41.8125 291.125 C41.65394531 292.07632812 41.49539062 293.02765625 41.33203125 294.0078125 C41.22246094 294.66523438 41.11289063 295.32265625 41 296 C40.67 296 40.34 296 40 296 C40 294.35 40 292.7 40 291 C39.3299292 291.01450195 38.6598584 291.02900391 37.96948242 291.04394531 C31.30679399 291.12523301 24.90486365 290.69176624 18.3125 289.75 C17.35625732 289.61505127 16.40001465 289.48010254 15.41479492 289.34106445 C7.10272597 288.11225118 -0.92542532 286.34199289 -9 284 C-9.74846191 283.79004395 -10.49692383 283.58008789 -11.26806641 283.36376953 C-28.68488359 278.43610213 -43.72988823 270.60248163 -59 261 C-59.58104492 260.64228516 -60.16208984 260.28457031 -60.76074219 259.91601562 C-62.20984126 258.99856379 -63.61037514 258.00526054 -65 257 C-65 256.34 -65 255.68 -65 255 C-66.65 254.34 -68.3 253.68 -70 253 C-70 252.34 -70 251.68 -70 251 C-70.5775 250.731875 -71.155 250.46375 -71.75 250.1875 C-74.05550043 248.97070811 -76.02056192 247.69666121 -78 246 C-78 245.34 -78 244.68 -78 244 C-78.66 244 -79.32 244 -80 244 C-80 243.34 -80 242.68 -80 242 C-80.66 242 -81.32 242 -82 242 C-83.515625 240.49609375 -83.515625 240.49609375 -85.25 238.4375 C-85.81203125 237.77621094 -86.3740625 237.11492187 -86.953125 236.43359375 C-87.62859375 235.63050781 -88.3040625 234.82742188 -89 234 C-89.45721436 233.47712402 -89.91442871 232.95424805 -90.38549805 232.41552734 C-114.74082237 204.48118948 -126.21821237 168.86557358 -124 132 C-122.40740057 109.87331117 -114.88514108 88.47588561 -103 69.8125 C-102.5875 69.15314453 -102.175 68.49378906 -101.75 67.81445312 C-98.98375368 63.42735936 -96.15966454 59.11503609 -93 55 C-92.34 55 -91.68 55 -91 55 C-90.71125 54.401875 -90.4225 53.80375 -90.125 53.1875 C-89 51 -89 51 -87 48 C-86.34 48 -85.68 48 -85 48 C-84.7834375 47.44828125 -84.566875 46.8965625 -84.34375 46.328125 C-82.53504366 43.19443611 -80.18448326 41.16603494 -77.5 38.75 C-77.00113281 38.29109375 -76.50226563 37.8321875 -75.98828125 37.359375 C-72.25897507 34 -72.25897507 34 -70 34 C-70 33.34 -70 32.68 -70 32 C-52.62859726 17.72002198 -31.51961236 7.25267187 -10 1 C-8.77023438 0.608125 -7.54046875 0.21625 -6.2734375 -0.1875 C-3 -1 -3 -1 0 0 Z " fill="#FDCC5E" transform="translate(208,124)"/>
<path d="M0 0 C2.55018094 2.55018094 2.72110718 4.68713541 3.0234375 8.203125 C2.92473853 19.98120226 -1.81769038 37.40488324 -9 47 C-9.99 47 -10.98 47 -12 47 C-11.66548828 48.00160156 -11.66548828 48.00160156 -11.32421875 49.0234375 C-10.88436591 53.06160457 -12.2290583 55.99958614 -13.8125 59.625 C-14.12727295 60.36572754 -14.4420459 61.10645508 -14.76635742 61.86962891 C-18.2957292 69.98455204 -22.45819207 77.75588784 -26.67089844 85.53125 C-29.39192757 90.58544666 -32.0316785 95.68295469 -34.6887207 100.77099609 C-35.07890381 101.51430176 -35.46908691 102.25760742 -35.87109375 103.0234375 C-36.238396 103.7239624 -36.60569824 104.4244873 -36.98413086 105.14624023 C-38 107 -38 107 -39.65625 109.49609375 C-41.56424033 113.05138969 -42.25278567 116.77158287 -43.0625 120.6875 C-43.49474069 122.67766186 -43.92990075 124.6671908 -44.3671875 126.65625 C-44.74375488 128.37134766 -44.74375488 128.37134766 -45.12792969 130.12109375 C-46.69755643 137.10268099 -48.37898367 144.05773052 -50.04733276 151.01626587 C-53.69200099 166.22442024 -57.29320223 181.44255251 -60.84146118 196.67349243 C-61.27594755 198.53834685 -61.71097419 200.40307548 -62.14657593 202.26766968 C-65.25867974 215.59370284 -65.25867974 215.59370284 -68 229 C-67.73896484 228.48203857 -67.47792969 227.96407715 -67.20898438 227.43041992 C-62.10435767 217.3608509 -56.98481777 207.90221873 -50 199 C-49.34 198.01 -48.68 197.02 -48 196 C-47.34 196 -46.68 196 -46 196 C-45.75507813 195.40703125 -45.51015625 194.8140625 -45.2578125 194.203125 C-42.95344577 190.16690501 -39.0903856 188.02559031 -35 186 C-30.97354199 185.03995485 -27.96050671 185.49791695 -24.25 187.4375 C-18.09998205 194.44168711 -17.38550474 202.09092853 -16.68286133 211.08422852 C-16.29230686 215.98441187 -15.51846588 220.31910931 -14 225 C-8.84620558 223.76308934 -5.37602946 222.11184317 -1 219 C-0.2575 218.67 0.485 218.34 1.25 218 C3.12605431 217.15100311 3.12605431 217.15100311 3.78515625 215.3203125 C5.46233576 212.11695357 7.81815598 209.57618714 10.1875 206.875 C14.06385412 202.36439036 17.75757711 197.84869426 21.046875 192.8828125 C22.62134646 190.55889262 24.25100805 188.34574339 25.953125 186.1171875 C33.81422486 175.52220765 37.11203927 166.30456143 38.71923828 153.25146484 C39.06727856 150.46048445 39.5591024 147.70423563 40.0625 144.9375 C40.66879467 141.27845846 41.18928857 137.6134766 41.6796875 133.9375 C41.804646 133.03265869 41.92960449 132.12781738 42.05834961 131.19555664 C42.30706627 129.38631511 42.54522957 127.57558477 42.77172852 125.76342773 C42.88701904 124.93270752 43.00230957 124.1019873 43.12109375 123.24609375 C43.2183374 122.50029053 43.31558105 121.7544873 43.41577148 120.98608398 C44.12728208 118.56730476 45.00181309 117.51740643 47 116 C49.67479327 116.26095544 51.60095141 116.8004757 54 118 C54.12821768 122.81121569 53.72307274 127.05540358 52.6875 131.75 C51.4252908 137.66360036 50.40297072 143.58383919 49.5 149.5625 C48.45674407 156.43352814 47.14940326 163.17059382 45.62890625 169.953125 C44.80113068 173.96346629 44.35150339 177.92256069 44 182 C44.185625 181.195625 44.185625 181.195625 44.375 180.375 C48.30156069 165.45406937 57.37697773 146.24615196 70.8671875 137.8359375 C75.09758039 136.17787142 79.54586476 136.49625851 84 137 C88.09931913 138.91883023 89.47753275 141.58251931 91.3125 145.5625 C95.69465167 157.90077131 91.669758 169.75792189 86.5546875 181.24609375 C85.42025906 183.53115675 84.25459898 185.77909286 83 188 C82.34 188 81.68 188 81 188 C80.7525 188.721875 80.505 189.44375 80.25 190.1875 C78.87730408 193.27606582 77.27646704 195.51011418 75 198 C74.34 198 73.68 198 73 198 C72.7834375 198.56203125 72.566875 199.1240625 72.34375 199.703125 C70.54930872 202.77036765 68.26107786 204.52660572 65.5 206.75 C64.5203125 207.54921875 63.540625 208.3484375 62.53125 209.171875 C60 211 60 211 58 211 C58 211.66 58 212.32 58 213 C55.71125827 214.33858524 53.41930344 215.67101014 51.125 217 C50.14853516 217.57234375 50.14853516 217.57234375 49.15234375 218.15625 C44.2265625 221 44.2265625 221 42 221 C41.89405518 221.63599121 41.78811035 222.27198242 41.67895508 222.92724609 C40.35077249 230.58576816 38.56702393 238.08553451 36.6875 245.625 C34.13548525 256.01979179 31.81738808 266.43253823 29.78076172 276.94116211 C28.40221405 284.05033358 26.88989151 291.11997416 25.3125 298.1875 C23.70437812 305.42100276 22.39833138 312.56564239 21.46484375 319.91796875 C20.83068599 324.12259456 19.7952197 328.1803294 18.68359375 332.28125 C17.9346124 335.06323065 17.9346124 335.06323065 17.53515625 338.21875 C17 341 17 341 15 343 C14.91046861 345.22540854 14.91046861 345.22540854 15.125 347.875 C15.26080163 355.4436776 13.6592094 362.43100154 12.078125 369.78515625 C10.83593276 375.60057729 9.92496714 381.46008323 9.12768555 387.35205078 C8.68581466 390.28861582 8.30981921 392.56405221 6.5703125 395.01171875 C5 396 5 396 2.4375 395.75 C0 395 0 395 -2 394 C-2.33334636 384.63803571 -1.40819847 375.99396854 0.375 366.8125 C0.59671875 365.61947266 0.8184375 364.42644531 1.046875 363.19726562 C2.02567328 357.96069481 3.04873418 352.73386441 4.1015625 347.51171875 C4.80594342 344.01723443 5.43983946 340.52100912 6 337 C6.56798411 333.42981419 7.21835252 329.88903621 7.94140625 326.34765625 C9.07584744 320.73211988 10.01557189 315.09125193 10.9375 309.4375 C13.76878798 292.13518455 16.91035659 274.88743 20.02319336 257.6340332 C21.74295381 248.09900835 23.44729681 238.56402911 25 229 C24.39542969 229.33644531 23.79085937 229.67289063 23.16796875 230.01953125 C20.37949404 231.28062522 18.88413801 230.85744643 16 230 C15 229 15 229 14.8125 226.0625 C15 223 15 223 17 221 C18.68761858 220.39688385 20.40014476 219.86149763 22.125 219.375 C23.03507812 219.11460937 23.94515625 218.85421875 24.8828125 218.5859375 C25.93082031 218.29589844 25.93082031 218.29589844 27 218 C27.50297572 215.06298109 28.00249873 212.12544669 28.5 209.1875 C28.64308594 208.35412109 28.78617187 207.52074219 28.93359375 206.66210938 C29.06894531 205.85966797 29.20429688 205.05722656 29.34375 204.23046875 C29.53227539 203.12288208 29.53227539 203.12288208 29.72460938 201.99291992 C30.06844189 199.84001599 30.06844189 199.84001599 30 197 C28.77043961 198.68721314 27.54137349 200.37478649 26.3125 202.0625 C25.22001953 203.55910156 25.22001953 203.55910156 24.10546875 205.0859375 C22.41020044 207.43226433 20.76088861 209.7999869 19.125 212.1875 C18.073125 213.5796875 18.073125 213.5796875 17 215 C16.34 215 15.68 215 15 215 C14.76410156 215.55816406 14.52820313 216.11632812 14.28515625 216.69140625 C9.8899179 224.58680401 2.05118869 230.26938455 -6 234 C-6.66 234.33 -7.32 234.66 -8 235 C-11.37028895 235.46258868 -13.89095895 235.63503373 -16.91015625 233.90625 C-25.67028159 226.91302892 -26.81683674 216.0999484 -28.0625 205.625 C-28.14185791 204.91029541 -28.22121582 204.19559082 -28.30297852 203.45922852 C-28.69305184 199.60668245 -28.69305184 199.60668245 -30 196 C-35.58083491 196.63725797 -37.48227555 199.21674677 -40.96484375 203.36328125 C-50.3585313 215.5336058 -58.01349558 229.86398409 -64 244 C-64.71929687 245.66675781 -64.71929687 245.66675781 -65.453125 247.3671875 C-69.64572217 257.21343843 -73.48706537 267.13684283 -76.921875 277.26953125 C-78 280 -78 280 -80 282 C-82.5 282.25 -82.5 282.25 -85 282 C-87.51882258 279.48117742 -87.32541361 278.62579925 -87.375 275.125 C-87.1877139 263.18190965 -84.03192904 251.12075025 -80.71484375 239.69921875 C-79.48601273 235.05920655 -78.66174245 230.33566932 -77.75 225.625 C-77.1102962 222.53309829 -76.36681074 219.5338376 -75.5 216.5 C-73.95309146 211.06578244 -72.89253147 205.57526683 -71.81640625 200.03125 C-70.71488852 194.47315804 -69.38331207 188.9701412 -68.0625 183.4609375 C-67.23834527 180.02257987 -66.44019444 176.57877313 -65.6484375 173.1328125 C-63.67904941 164.57944127 -61.6508939 156.04012267 -59.625 147.5 C-59.22175136 145.79931871 -58.8185125 144.0986351 -58.4152832 142.39794922 C-57.62851444 139.08001657 -56.8414547 135.76215313 -56.05419922 132.44433594 C-55.18193664 128.76789268 -54.31134095 125.09105737 -53.44140625 121.4140625 C-51.34375518 112.55923038 -49.19294047 103.72134258 -46.96484375 94.8984375 C-46.10434946 91.45820753 -45.29915532 88.00669349 -44.50219727 84.55126953 C-42.86141838 77.4409618 -41.05108274 70.4214013 -38.9765625 63.421875 C-38.33555191 61.17577388 -37.74503854 58.91452053 -37.2109375 56.640625 C-32.94811099 38.71284994 -25.23685992 20.35528988 -15 5 C-14.34 5 -13.68 5 -13 5 C-12.62875 4.071875 -12.62875 4.071875 -12.25 3.125 C-9.2596142 -1.95865586 -5.29356043 -1.17634676 0 0 Z M-10 17 C-9 19 -9 19 -9 19 Z M-11 19 C-10 21 -10 21 -10 21 Z M-12 21 C-12.66 22.0725 -13.32 23.145 -14 24.25 C-14.37125 24.85328125 -14.7425 25.4565625 -15.125 26.078125 C-16.27624023 28.25479385 -16.27624023 28.25479385 -16 32 C-16.66 32 -17.32 32 -18 32 C-19.00486895 34.95670218 -20.00306024 37.91561577 -21 40.875 C-21.28617187 41.71675781 -21.57234375 42.55851562 -21.8671875 43.42578125 C-22.13789063 44.23144531 -22.40859375 45.03710938 -22.6875 45.8671875 C-22.93886719 46.61081543 -23.19023437 47.35444336 -23.44921875 48.12060547 C-24.09374494 49.99347314 -24.09374494 49.99347314 -24 52 C-23.34 52 -22.68 52 -22 52 C-18.94729158 45.62443197 -16.18010788 39.15127554 -13.625 32.5625 C-13.35026855 31.87671875 -13.07553711 31.1909375 -12.79248047 30.484375 C-10.97074851 25.77102774 -10.97074851 25.77102774 -12 21 Z " fill="#0C0705" transform="translate(244,69)"/>
<path d="M0 0 C2.55018094 2.55018094 2.72110718 4.68713541 3.0234375 8.203125 C2.92473853 19.98120226 -1.81769038 37.40488324 -9 47 C-9.99 47 -10.98 47 -12 47 C-11.66548828 48.00160156 -11.66548828 48.00160156 -11.32421875 49.0234375 C-10.88436591 53.06160457 -12.2290583 55.99958614 -13.8125 59.625 C-14.12727295 60.36572754 -14.4420459 61.10645508 -14.76635742 61.86962891 C-18.2957292 69.98455204 -22.45819207 77.75588784 -26.67089844 85.53125 C-29.39192757 90.58544666 -32.0316785 95.68295469 -34.6887207 100.77099609 C-35.07890381 101.51430176 -35.46908691 102.25760742 -35.87109375 103.0234375 C-36.238396 103.7239624 -36.60569824 104.4244873 -36.98413086 105.14624023 C-38 107 -38 107 -39.65625 109.49609375 C-41.56424033 113.05138969 -42.25278567 116.77158287 -43.0625 120.6875 C-43.49474069 122.67766186 -43.92990075 124.6671908 -44.3671875 126.65625 C-44.74375488 128.37134766 -44.74375488 128.37134766 -45.12792969 130.12109375 C-46.69755643 137.10268099 -48.37898367 144.05773052 -50.04733276 151.01626587 C-53.69200099 166.22442024 -57.29320223 181.44255251 -60.84146118 196.67349243 C-61.27594755 198.53834685 -61.71097419 200.40307548 -62.14657593 202.26766968 C-65.25867974 215.59370284 -65.25867974 215.59370284 -68 229 C-67.73896484 228.48203857 -67.47792969 227.96407715 -67.20898438 227.43041992 C-62.10435767 217.3608509 -56.98481777 207.90221873 -50 199 C-49.34 198.01 -48.68 197.02 -48 196 C-47.34 196 -46.68 196 -46 196 C-45.75507813 195.40703125 -45.51015625 194.8140625 -45.2578125 194.203125 C-42.95344577 190.16690501 -39.0903856 188.02559031 -35 186 C-30.97354199 185.03995485 -27.96050671 185.49791695 -24.25 187.4375 C-18.09998205 194.44168711 -17.38550474 202.09092853 -16.68286133 211.08422852 C-16.29230686 215.98441187 -15.51846588 220.31910931 -14 225 C-8.84620558 223.76308934 -5.37602946 222.11184317 -1 219 C-0.2575 218.67 0.485 218.34 1.25 218 C3.12605431 217.15100311 3.12605431 217.15100311 3.78515625 215.3203125 C5.46219674 212.11721909 7.81734851 209.57527831 10.1875 206.875 C14.32995971 202.08143669 18.13111226 197.19777606 21.66015625 191.92578125 C23 190 23 190 25 188 C24.37275986 192.64157706 24.37275986 192.64157706 22.375 194.5625 C21.92125 195.036875 21.4675 195.51125 21 196 C21.22757731 198.16299211 21.22757731 198.16299211 22 200 C23.98 199.67 25.96 199.34 28 199 C25.81820014 202.7412054 23.45912809 206.29164732 20.9375 209.8125 C20.24527344 210.78832031 19.55304688 211.76414062 18.83984375 212.76953125 C17.92912109 213.87361328 17.92912109 213.87361328 17 215 C16.34 215 15.68 215 15 215 C14.76410156 215.55816406 14.52820313 216.11632812 14.28515625 216.69140625 C9.8899179 224.58680401 2.05118869 230.26938455 -6 234 C-6.66 234.33 -7.32 234.66 -8 235 C-11.37028895 235.46258868 -13.89095895 235.63503373 -16.91015625 233.90625 C-25.67028159 226.91302892 -26.81683674 216.0999484 -28.0625 205.625 C-28.14185791 204.91029541 -28.22121582 204.19559082 -28.30297852 203.45922852 C-28.69305184 199.60668245 -28.69305184 199.60668245 -30 196 C-35.58083491 196.63725797 -37.48227555 199.21674677 -40.96484375 203.36328125 C-50.3585313 215.5336058 -58.01349558 229.86398409 -64 244 C-64.71929687 245.66675781 -64.71929687 245.66675781 -65.453125 247.3671875 C-69.64572217 257.21343843 -73.48706537 267.13684283 -76.921875 277.26953125 C-78 280 -78 280 -80 282 C-82.5 282.25 -82.5 282.25 -85 282 C-87.51882258 279.48117742 -87.32541361 278.62579925 -87.375 275.125 C-87.1877139 263.18190965 -84.03192904 251.12075025 -80.71484375 239.69921875 C-79.48601273 235.05920655 -78.66174245 230.33566932 -77.75 225.625 C-77.1102962 222.53309829 -76.36681074 219.5338376 -75.5 216.5 C-73.95309146 211.06578244 -72.89253147 205.57526683 -71.81640625 200.03125 C-70.71488852 194.47315804 -69.38331207 188.9701412 -68.0625 183.4609375 C-67.23834527 180.02257987 -66.44019444 176.57877313 -65.6484375 173.1328125 C-63.67904941 164.57944127 -61.6508939 156.04012267 -59.625 147.5 C-59.22175136 145.79931871 -58.8185125 144.0986351 -58.4152832 142.39794922 C-57.62851444 139.08001657 -56.8414547 135.76215313 -56.05419922 132.44433594 C-55.18193664 128.76789268 -54.31134095 125.09105737 -53.44140625 121.4140625 C-51.34375518 112.55923038 -49.19294047 103.72134258 -46.96484375 94.8984375 C-46.10434946 91.45820753 -45.29915532 88.00669349 -44.50219727 84.55126953 C-42.86141838 77.4409618 -41.05108274 70.4214013 -38.9765625 63.421875 C-38.33555191 61.17577388 -37.74503854 58.91452053 -37.2109375 56.640625 C-32.94811099 38.71284994 -25.23685992 20.35528988 -15 5 C-14.34 5 -13.68 5 -13 5 C-12.62875 4.071875 -12.62875 4.071875 -12.25 3.125 C-9.2596142 -1.95865586 -5.29356043 -1.17634676 0 0 Z M-10 17 C-9 19 -9 19 -9 19 Z M-11 19 C-10 21 -10 21 -10 21 Z M-12 21 C-12.66 22.0725 -13.32 23.145 -14 24.25 C-14.37125 24.85328125 -14.7425 25.4565625 -15.125 26.078125 C-16.27624023 28.25479385 -16.27624023 28.25479385 -16 32 C-16.66 32 -17.32 32 -18 32 C-19.00486895 34.95670218 -20.00306024 37.91561577 -21 40.875 C-21.28617187 41.71675781 -21.57234375 42.55851562 -21.8671875 43.42578125 C-22.13789063 44.23144531 -22.40859375 45.03710938 -22.6875 45.8671875 C-22.93886719 46.61081543 -23.19023437 47.35444336 -23.44921875 48.12060547 C-24.09374494 49.99347314 -24.09374494 49.99347314 -24 52 C-23.34 52 -22.68 52 -22 52 C-18.94729158 45.62443197 -16.18010788 39.15127554 -13.625 32.5625 C-13.35026855 31.87671875 -13.07553711 31.1909375 -12.79248047 30.484375 C-10.97074851 25.77102774 -10.97074851 25.77102774 -12 21 Z " fill="#0F0B07" transform="translate(244,69)"/>
<path d="M0 0 C3.42013103 5.13019655 2.49046219 11.01511962 2 17 C-0.92650981 31.36968888 -9.98480906 42.81125952 -21 52 C-22.27037109 53.06734375 -22.27037109 53.06734375 -23.56640625 54.15625 C-27.60657857 57.4799089 -31.01549905 60.25586734 -36 62 C-30.97472947 40.64260024 -23.98474731 15.17705801 -7 0 C-3.86559131 -1.0448029 -2.97903963 -1.15317663 0 0 Z " fill="#F6AA5A" transform="translate(325,216)"/>
<path d="M0 0 C1.37652616 3.77168167 0.60432755 6.48952871 -0.375 10.3125 C-1.29563608 13.95821889 -2.11155257 17.3713021 -2.3125 21.125 C-3 24 -3 24 -5.6875 25.8125 C-11.91743119 28.04587156 -11.91743119 28.04587156 -15 29 C-15 30.98 -15 32.96 -15 35 C-11.62182575 35.84454356 -9.32534757 36.10844919 -6 35 C-5.78175223 41.0018137 -6.4943096 46.19233704 -8 52 C-8.33 52 -8.66 52 -9 52 C-9 48.7 -9 45.4 -9 42 C-13.46236469 40.19380477 -16.31034294 39.88341499 -21 41 C-20.690625 40.34 -20.38125 39.68 -20.0625 39 C-18.75039745 35.29523985 -18.39735865 31.90736009 -18 28 C-18.66 28 -19.32 28 -20 28 C-20.12375 29.1446875 -20.12375 29.1446875 -20.25 30.3125 C-21 33 -21 33 -22.875 34.8125 C-25 36 -25 36 -28 36 C-27.67 37.32 -27.34 38.64 -27 40 C-27.99 40.495 -27.99 40.495 -29 41 C-29 40.01 -29 39.02 -29 38 C-29.66 38 -30.32 38 -31 38 C-31.33 38.66 -31.66 39.32 -32 40 C-32.495 38.515 -32.495 38.515 -33 37 C-32.5153125 36.6596875 -32.030625 36.319375 -31.53125 35.96875 C-22.55593777 29.60186421 -22.55593777 29.60186421 -16 21 C-15.34 21 -14.68 21 -14 21 C-13.74992187 20.45085937 -13.49984375 19.90171875 -13.2421875 19.3359375 C-11.76596022 16.55988746 -9.99890324 14.14946587 -8.125 11.625 C-5.31380437 7.8068852 -2.57985799 3.97728106 0 0 Z " fill="#F0B05C" transform="translate(275,263)"/>
<path d="M0 0 C0.66 0.33 1.32 0.66 2 1 C1.67 3.64 1.34 6.28 1 9 C1.99 9.33 2.98 9.66 4 10 C4.33 9.34 4.66 8.68 5 8 C5.66 8 6.32 8 7 8 C7 7.01 7 6.02 7 5 C7.99 5.33 8.98 5.66 10 6 C9.69819824 6.48243164 9.39639648 6.96486328 9.08544922 7.46191406 C3.2740354 16.78055932 -2.36579485 26.0276598 -7 36 C-8.29512154 32.11463539 -7.51772489 29.9798589 -6.6015625 25.99609375 C-6.44714691 25.31700455 -6.29273132 24.63791534 -6.13363647 23.93824768 C-5.80603444 22.50428049 -5.47460997 21.07118197 -5.13964844 19.63891602 C-4.6265266 17.44403005 -4.12474992 15.24679318 -3.625 13.04882812 C-1.16474167 2.32948333 -1.16474167 2.32948333 0 0 Z " fill="#EEC064" transform="translate(183,264)"/>
<path d="M0 0 C0.33 0 0.66 0 1 0 C0.9292627 0.6911792 0.85852539 1.3823584 0.78564453 2.09448242 C-0.100395 11.89619746 -0.15263618 21.65042271 -0.13037109 31.4855957 C-0.12497732 34.32443499 -0.13036406 37.16311841 -0.13671875 40.00195312 C-0.13605842 41.83072951 -0.1347782 43.6595058 -0.1328125 45.48828125 C-0.13483673 46.32490799 -0.13686096 47.16153473 -0.13894653 48.02351379 C-0.60359605 56.57516497 -0.60359605 56.57516497 2 64 C2.04092937 66.33297433 2.04241723 68.66705225 2 71 C0.03737001 67.55902534 -0.75073978 64.17579862 -1.5625 60.3125 C-1.81128906 59.15363281 -2.06007813 57.99476563 -2.31640625 56.80078125 C-5.57014116 38.71001518 -5.86537658 17.59612974 0 0 Z " fill="#F9E896" transform="translate(88,233)"/>
<path d="M0 0 C0.99443769 2.98331306 1.02452065 4.20838759 0.66015625 7.23046875 C0.56669922 8.03291016 0.47324219 8.83535156 0.37695312 9.66210938 C0.22129883 10.91217773 0.22129883 10.91217773 0.0625 12.1875 C-0.03740234 13.03248047 -0.13730469 13.87746094 -0.24023438 14.74804688 C-0.48757108 16.83274197 -0.74301041 18.91647284 -1 21 C0.32 20.67 1.64 20.34 3 20 C1.42409125 24.47889856 -0.29633286 28.66739386 -2.5 32.875 C-5.01007386 37.75864824 -6.61278042 42.69924227 -8 48 C-9.37139624 43.88581128 -8.45635197 40.36291544 -7.75 36.1875 C-7.61086182 35.33671875 -7.47172363 34.4859375 -7.32836914 33.609375 C-6.29469463 27.42012527 -5.0656319 21.29864005 -3.69140625 15.17578125 C-2.81292866 11.14074009 -2.10752259 7.08467519 -1.4296875 3.01171875 C-1 1 -1 1 0 0 Z " fill="#E4A45E" transform="translate(296,205)"/>
<path d="M0 0 C0.75 1.5625 0.75 1.5625 1 4 C-1.57093862 9.84304231 -5.61188769 14.06403436 -9.9765625 18.66796875 C-11.80373932 20.77380768 -12.88010165 22.48022872 -14 25 C-15.30791714 27.34852275 -16.65658502 29.67141404 -18 32 C-18.66 32 -19.32 32 -20 32 C-19.938125 32.721875 -19.87625 33.44375 -19.8125 34.1875 C-20.03894223 37.5841334 -20.93254708 39.31996843 -23 42 C-23.99 42 -24.98 42 -26 42 C-23.64489176 32.57956705 -18.29354279 25.00411661 -13 17 C-11.94039062 15.38931641 -11.94039062 15.38931641 -10.859375 13.74609375 C-7.45954693 8.72491909 -7.45954693 8.72491909 -6 7 C-5.34 7 -4.68 7 -4 7 C-3.71125 6.401875 -3.4225 5.80375 -3.125 5.1875 C-2 3 -2 3 0 0 Z " fill="#F9DF82" transform="translate(121,172)"/>
<path d="M0 0 C-13.21189215 5.20836747 -26.36133965 9.31858493 -40.375 11.75 C-41.46240479 11.94178833 -41.46240479 11.94178833 -42.57177734 12.13745117 C-47.76384809 12.97948867 -52.74102096 13.1037274 -58 13 C-58 12.34 -58 11.68 -58 11 C-56.76080811 10.84966309 -56.76080811 10.84966309 -55.49658203 10.69628906 C-52.38264476 10.31189541 -49.27056084 9.91526685 -46.15917969 9.51074219 C-44.16978162 9.25574013 -42.17864383 9.01442911 -40.1875 8.7734375 C-33.36936089 7.8781263 -27.32503586 6.75259171 -21.06469727 3.85083008 C-18.91350055 2.9643549 -17.12122861 2.65041578 -14.8125 2.4375 C-11.6130094 2.07034534 -10.02868777 1.69059952 -7.25 0.375 C-3.85070146 -1.06316477 -3.28503816 -1.07120809 0 0 Z " fill="#F5C78C" transform="translate(321,401)"/>
<path d="M0 0 C0.80566406 0.07863281 1.61132812 0.15726563 2.44140625 0.23828125 C3.42947266 0.46064453 3.42947266 0.46064453 4.4375 0.6875 C4.7675 1.3475 5.0975 2.0075 5.4375 2.6875 C5.1075 3.6775 4.7775 4.6675 4.4375 5.6875 C5.4275 5.6875 6.4175 5.6875 7.4375 5.6875 C11.64216512 11.40584456 12.69425498 17.07948631 12.5625 24.0625 C12.54445312 25.30773437 12.52640625 26.55296875 12.5078125 27.8359375 C12.48460937 28.77695312 12.46140625 29.71796875 12.4375 30.6875 C12.1075 30.6875 11.7775 30.6875 11.4375 30.6875 C11.41171875 29.92566406 11.3859375 29.16382813 11.359375 28.37890625 C10.92855786 20.53607611 9.89347751 13.76061635 4.6875 7.625 C-0.14518055 5.6113831 -5.59983649 6.44683412 -10.5625 7.6875 C-10.088125 7.275 -9.61375 6.8625 -9.125 6.4375 C-7.38310046 4.48657252 -7.14471635 3.18271294 -6.5625 0.6875 C-4.07849398 -0.55450301 -2.74042364 -0.29471651 0 0 Z " fill="#FAC35D" transform="translate(214.5625,249.3125)"/>
<path d="M0 0 C1.9375 0.6875 1.9375 0.6875 4 2 C4.75 4.625 4.75 4.625 5 7 C6.65 6.67 8.3 6.34 10 6 C10 6.99 10 7.98 10 9 C9.34 9 8.68 9 8 9 C8.4125 9.350625 8.825 9.70125 9.25 10.0625 C12.86391159 14.06361641 15.16984161 18.96706442 17 24 C17.66 24 18.32 24 19 24 C19.33 25.65 19.66 27.3 20 29 C14.79929799 25.4678159 11.76587656 20.75617786 8.3125 15.625 C7.73177734 14.78710938 7.15105469 13.94921875 6.55273438 13.0859375 C3.66601437 8.84095732 1.27320266 5.04352539 0 0 Z " fill="#F8E189" transform="translate(100,329)"/>
<path d="M0 0 C0.99 0.33 1.98 0.66 3 1 C2.58894145 6.24099655 1.75960806 9.24039194 -2 13 C-2.66 13 -3.32 13 -4 13 C-3.896875 13.721875 -3.79375 14.44375 -3.6875 15.1875 C-4.12449065 19.12041589 -6.10082197 20.46321923 -9 23 C-9.66 22.67 -10.32 22.34 -11 22 C-7.37 14.74 -3.74 7.48 0 0 Z " fill="#EBBA60" transform="translate(220,147)"/>
<path d="M0 0 C0.33 0 0.66 0 1 0 C1.15855469 0.79664063 1.31710938 1.59328125 1.48046875 2.4140625 C2.92238218 8.96242072 4.17047925 13.29431311 9 18 C9.66 18.66 10.32 19.32 11 20 C9 21 9 21 5.5625 20.5 C2.04687076 19.73714606 2.04687076 19.73714606 -1 21 C-0.9278125 20.40574219 -0.855625 19.81148438 -0.78125 19.19921875 C-0.06182721 12.77437359 0.11055835 6.46152127 0 0 Z " fill="#F8C060" transform="translate(217,283)"/>
<path d="M0 0 C0.66 0.33 1.32 0.66 2 1 C0.96774255 4.09677236 -0.06710748 7.18366259 -1.1875 10.25 C-2.319329 12.92994054 -2.319329 12.92994054 -1 15 C-1.474375 15.391875 -1.94875 15.78375 -2.4375 16.1875 C-4.35179633 18.40808374 -4.61266988 20.13375709 -5 23 C-5.99 23 -6.98 23 -8 23 C-6.75522833 14.49406023 -3.98081163 7.55138695 0 0 Z " fill="#E5B663" transform="translate(208,170)"/>
<path d="M0 0 C0.8971875 0.309375 0.8971875 0.309375 1.8125 0.625 C3.4415678 5.41637588 4.01827428 8.68132546 2.8125 13.625 C2.4825 13.625 2.1525 13.625 1.8125 13.625 C1.8125 10.985 1.8125 8.345 1.8125 5.625 C0.8225 5.625 -0.1675 5.625 -1.1875 5.625 C-1.5175 4.965 -1.8475 4.305 -2.1875 3.625 C-3.89590281 5.25912443 -5.12203047 6.49406094 -6.1875 8.625 C-7.5075 8.625 -8.8275 8.625 -10.1875 8.625 C-10.1875 9.285 -10.1875 9.945 -10.1875 10.625 C-10.8475 10.295 -11.5075 9.965 -12.1875 9.625 C-11.08783225 8.32950101 -9.98258199 7.03873929 -8.875 5.75 C-8.26011719 5.03070313 -7.64523438 4.31140625 -7.01171875 3.5703125 C-3.15626236 -0.54107355 -3.15626236 -0.54107355 0 0 Z " fill="#E7B760" transform="translate(213.1875,264.375)"/>
<path d="M0 0 C1.37652616 3.77168167 0.60432755 6.48952871 -0.375 10.3125 C-1.50218544 14.88300537 -2.45664182 19.32711968 -3 24 C-3.33 24 -3.66 24 -4 24 C-4 20.37 -4 16.74 -4 13 C-5.98 13.66 -7.96 14.32 -10 15 C-7.19921875 10.79882812 -7.19921875 10.79882812 -4.3984375 6.59765625 C-3.85445313 5.78167969 -3.31046875 4.96570313 -2.75 4.125 C-2.22921875 3.34382813 -1.7084375 2.56265625 -1.171875 1.7578125 C-0.59179688 0.88769531 -0.59179688 0.88769531 0 0 Z " fill="#D7A460" transform="translate(275,263)"/>
<path d="M0 0 C7.66428613 6.83890147 11.63284251 18.21574904 14 28 C9.13916426 23.92740789 7.67124243 20.03002337 6 14 C5.67 13.01 5.34 12.02 5 11 C4.34 11 3.68 11 3 11 C2.49632243 9.54293274 1.99717444 8.08429904 1.5 6.625 C1.2215625 5.81289062 0.943125 5.00078125 0.65625 4.1640625 C0 2 0 2 0 0 Z " fill="#F3B790" transform="translate(394,194)"/>
<path d="M0 0 C2.04119788 1.61594832 4.04072937 3.2856382 6 5 C6 5.66 6 6.32 6 7 C6.66 7 7.32 7 8 7 C9.4631783 8.97440927 10.80713064 10.93238871 12.125 13 C12.68380859 13.85851562 12.68380859 13.85851562 13.25390625 14.734375 C14.17550408 16.15221782 15.08855821 17.57560725 16 19 C15.34 19.66 14.68 20.32 14 21 C13.67 20.01 13.34 19.02 13 18 C12.34 17.67 11.68 17.34 11 17 C10.67 16.01 10.34 15.02 10 14 C9.34 13.67 8.68 13.34 8 13 C8 12.34 8 11.68 8 11 C6.35 10.67 4.7 10.34 3 10 C2.67 8.02 2.34 6.04 2 4 C1.34 4 0.68 4 0 4 C0 2.68 0 1.36 0 0 Z " fill="#F6AF7A" transform="translate(377,172)"/>
<path d="M0 0 C0.33 0 0.66 0 1 0 C0.67 5.28 0.34 10.56 0 16 C-0.66 16 -1.32 16 -2 16 C-1.979375 16.969375 -1.95875 17.93875 -1.9375 18.9375 C-2 22 -2 22 -3 23 C-3.144375 24.155 -3.28875 25.31 -3.4375 26.5 C-3.623125 27.655 -3.80875 28.81 -4 30 C-4.66 30.33 -5.32 30.66 -6 31 C-5.69089383 23.98328987 -4.52965372 17.27458862 -3 10.4375 C-2.82178711 9.63973145 -2.64357422 8.84196289 -2.45996094 8.02001953 C-1.14208073 2.28416145 -1.14208073 2.28416145 0 0 Z " fill="#DAB05D" transform="translate(199,195)"/>
<path d="M0 0 C-1.875 4.75 -1.875 4.75 -3 7 C-7.51617599 7.07654536 -11.59085217 7.10228696 -16 6 C-11.74276476 2.11295913 -5.72456601 0 0 0 Z " fill="#FCC666" transform="translate(195,127)"/>
<path d="M0 0 C6.11044351 0.32734519 11.56305277 1.62224913 17.375 3.4375 C18.07689453 3.65494873 18.77878906 3.87239746 19.50195312 4.09643555 C22.68600445 5.11971581 25.19888184 6.13258789 28 8 C24.7 7.67 21.4 7.34 18 7 C18 6.34 18 5.68 18 5 C16.700625 5.0825 15.40125 5.165 14.0625 5.25 C8.69075359 5.28410633 4.6824545 3.47959766 0 1 C0 0.67 0 0.34 0 0 Z " fill="#F6C590" transform="translate(286,122)"/>
<path d="M0 0 C0.33 0.66 0.66 1.32 1 2 C1.66 2 2.32 2 3 2 C3.33 1.34 3.66 0.68 4 0 C4 1.32 4 2.64 4 4 C3.34 4 2.68 4 2 4 C1.89816406 4.68449219 1.79632813 5.36898437 1.69140625 6.07421875 C0.86230008 9.58269626 -0.5172232 12.55755526 -2.0625 15.8125 C-2.61035156 16.97394531 -3.15820312 18.13539063 -3.72265625 19.33203125 C-4.14417969 20.21246094 -4.56570312 21.09289062 -5 22 C-6.13087014 18.60738958 -5.86514295 17.83482243 -4.78515625 14.55078125 C-4.37426758 13.27944336 -4.37426758 13.27944336 -3.95507812 11.98242188 C-3.66052734 11.10134766 -3.36597656 10.22027344 -3.0625 9.3125 C-2.77181641 8.41982422 -2.48113281 7.52714844 -2.18164062 6.60742188 C-1.46230013 4.40223052 -0.73483328 2.20006742 0 0 Z " fill="#C4A269" transform="translate(219,119)"/>
<path d="M0 0 C0.66 0 1.32 0 2 0 C2.268125 0.845625 2.53625 1.69125 2.8125 2.5625 C3.6651582 5.03072109 4.56100368 7.3174608 5.625 9.6875 C7 13 7 13 7 16 C7.66 16 8.32 16 9 16 C9.33 18.97 9.66 21.94 10 25 C7.08905282 21.56612817 5.49928575 17.7714179 3.875 13.625 C3.61074219 12.97789062 3.34648438 12.33078125 3.07421875 11.6640625 C1.53680323 7.7932092 0.52430473 4.13049821 0 0 Z " fill="#FAE696" transform="translate(90,304)"/>
<path d="M0 0 C-0.33722332 3.03500987 -0.80451003 4.74658707 -2.6875 7.1875 C-5.36055807 9.28259957 -7.77542102 9.99231907 -11 11 C-13.30166675 12.51553153 -13.30166675 12.51553153 -15 14 C-13.41102996 9.95190965 -10.69374052 7.62436647 -7.5 4.75 C-7.00113281 4.29109375 -6.50226563 3.8321875 -5.98828125 3.359375 C-2.25897507 0 -2.25897507 0 0 0 Z " fill="#F9DB7B" transform="translate(138,158)"/>
<path d="M0 0 C2.3125 0.25 2.3125 0.25 5 1 C6.03145371 2.30915279 7.03542166 3.64082143 8 5 C8.99 5 9.98 5 11 5 C11.33 6.65 11.66 8.3 12 10 C12.99 10.33 13.98 10.66 15 11 C15.6875 13.0625 15.6875 13.0625 16 15 C13.05043472 13.63055898 10.47531189 12.12169591 8 10 C8 9.34 8 8.68 8 8 C7.34 8 6.68 8 6 8 C6 7.34 6 6.68 6 6 C5.34 6 4.68 6 4 6 C2.61061923 4.03852126 1.2739589 2.03833424 0 0 Z " fill="#F9E08F" transform="translate(122,360)"/>
<path d="M0 0 C0.99 0.2165625 0.99 0.2165625 2 0.4375 C5.09932593 1.07070934 5.09932593 1.07070934 8.6875 1.3125 C13.80518315 1.8996147 18.32015928 3.93818493 23 6 C23 6.66 23 7.32 23 8 C14.99407145 7.27218831 6.25809239 5.22752348 0 0 Z " fill="#F7D58D" transform="translate(176,399)"/>
<path d="M0 0 C3 3.671875 3 3.671875 3 6.625 C1.58828441 11.38954011 -0.65959973 15.63010134 -3 20 C-4.04940487 16.85178538 -3.98606526 16.0650509 -3.22265625 12.98828125 C-3.03896484 12.23095703 -2.85527344 11.47363281 -2.66601562 10.69335938 C-2.46685547 9.90767578 -2.26769531 9.12199219 -2.0625 8.3125 C-1.86720703 7.51521484 -1.67191406 6.71792969 -1.47070312 5.89648438 C-0.98771618 3.92919611 -0.4948037 1.96434946 0 0 Z " fill="#E6B867" transform="translate(179,280)"/>
<path d="M0 0 C1.22757672 3.68273017 0.65080193 5.43630999 -0.21484375 9.19921875 C-0.48876953 10.40771484 -0.76269531 11.61621094 -1.04492188 12.86132812 C-1.33947266 14.12396484 -1.63402344 15.38660156 -1.9375 16.6875 C-2.22818359 17.96173828 -2.51886719 19.23597656 -2.81835938 20.54882812 C-3.5384989 23.70091426 -4.26598879 26.85112037 -5 30 C-5.33 30 -5.66 30 -6 30 C-5.67 25.05 -5.34 20.1 -5 15 C-4.34 15 -3.68 15 -3 15 C-3.061875 14.195625 -3.12375 13.39125 -3.1875 12.5625 C-2.94860593 8.02351267 -1.57956736 4.23098399 0 0 Z " fill="#E8BC6B" transform="translate(192,180)"/>
<path d="M0 0 C0.66 0.33 1.32 0.66 2 1 C1.55445624 4.60586867 1.09137926 8.20927174 0.625 11.8125 C0.49867188 12.83666016 0.37234375 13.86082031 0.2421875 14.91601562 C0.11328125 15.89892578 -0.015625 16.88183594 -0.1484375 17.89453125 C-0.26364746 18.80050049 -0.37885742 19.70646973 -0.49755859 20.63989258 C-1 23 -1 23 -3 26 C-3.09362737 20.44477586 -2.79057189 15.12943007 -2.0625 9.625 C-1.97548828 8.91472656 -1.88847656 8.20445312 -1.79882812 7.47265625 C-1.13157685 2.2631537 -1.13157685 2.2631537 0 0 Z " fill="#DAA761" transform="translate(260,340)"/>
<path d="M0 0 C0.66 0 1.32 0 2 0 C1.36640958 4.02573607 -0.68809365 6.84796544 -2.9375 10.1875 C-3.64777344 11.25355469 -4.35804688 12.31960938 -5.08984375 13.41796875 C-7 16 -7 16 -9 17 C-8.67 14.69 -8.34 12.38 -8 10 C-6.68 9.67 -5.36 9.34 -4 9 C-4.33 7.68 -4.66 6.36 -5 5 C-3.68 5 -2.36 5 -1 5 C-0.67 3.35 -0.34 1.7 0 0 Z " fill="#F6B484" transform="translate(396,332)"/>
<path d="M0 0 C1.1178955 3.82810045 0.66019714 6.12513365 -0.375 10 C-1.94643634 16.33597394 -2.65990627 22.49130961 -3 29 C-3.33 29 -3.66 29 -4 29 C-4.1174875 25.66696997 -4.18767324 22.33448163 -4.25 19 C-4.28351563 18.06542969 -4.31703125 17.13085938 -4.3515625 16.16796875 C-4.44296255 9.63286511 -3.36488092 5.61696657 0 0 Z " fill="#E4C371" transform="translate(160,320)"/>
<path d="M0 0 C0.99 0.33 1.98 0.66 3 1 C1.85900474 4.42298577 0.99914379 5.14758766 -2 7 C-2.99 7 -3.98 7 -5 7 C-4.67 8.32 -4.34 9.64 -4 11 C-4.99 11.495 -4.99 11.495 -6 12 C-6 11.01 -6 10.02 -6 9 C-6.66 9 -7.32 9 -8 9 C-8.33 9.66 -8.66 10.32 -9 11 C-9.33 10.01 -9.66 9.02 -10 8 C-9.44570312 7.59007812 -8.89140625 7.18015625 -8.3203125 6.7578125 C-7.59585938 6.21898437 -6.87140625 5.68015625 -6.125 5.125 C-5.04605469 4.32449219 -5.04605469 4.32449219 -3.9453125 3.5078125 C-1.91747368 2.00126838 -1.91747368 2.00126838 0 0 Z " fill="#EAB05E" transform="translate(252,292)"/>
<path d="M0 0 C2.3125 -0.3125 2.3125 -0.3125 5 0 C9.34707689 5.47409682 10.253597 11.55935906 10.125 18.375 C10.10695312 19.62023437 10.08890625 20.86546875 10.0703125 22.1484375 C10.04710937 23.08945312 10.02390625 24.03046875 10 25 C9.67 25 9.34 25 9 25 C8.97421875 24.23816406 8.9484375 23.47632813 8.921875 22.69140625 C8.47106081 14.48453885 7.28524488 7.7415289 1.75 1.4375 C1.1725 0.963125 0.595 0.48875 0 0 Z " fill="#E3B466" transform="translate(217,255)"/>
<path d="M0 0 C0.33 1.32 0.66 2.64 1 4 C0.01 4.33 -0.98 4.66 -2 5 C-2.67156616 6.93618425 -2.67156616 6.93618425 -3 9 C-4.39789678 11.79579355 -6.2628997 12.59807058 -9 14 C-9.66 13.67 -10.32 13.34 -11 13 C-10.67 12.34 -10.34 11.68 -10 11 C-9.34 11 -8.68 11 -8 11 C-7.7525 10.46375 -7.505 9.9275 -7.25 9.375 C-3.14285714 1.57142857 -3.14285714 1.57142857 0 0 Z " fill="#E19F5E" transform="translate(327,256)"/>
<path d="M0 0 C1.33332095 2.6666419 0.67102033 4.16680303 0 7 C-0.66 7 -1.32 7 -2 7 C-1.938125 7.721875 -1.87625 8.44375 -1.8125 9.1875 C-2.03894223 12.5841334 -2.93254708 14.31996843 -5 17 C-5.99 17 -6.98 17 -8 17 C-6.19389405 10.65660349 -3.74372266 5.43061745 0 0 Z " fill="#FBE89E" transform="translate(103,197)"/>
<path d="M0 0 C1.17219543 0.78345715 2.33763668 1.57702836 3.5 2.375 C4.47453125 3.03628906 4.47453125 3.03628906 5.46875 3.7109375 C5.9740625 4.13632813 6.479375 4.56171875 7 5 C7 5.66 7 6.32 7 7 C8.32 7.66 9.64 8.32 11 9 C11 9.66 11 10.32 11 11 C11.66 11 12.32 11 13 11 C12.67 11.66 12.34 12.32 12 13 C11.34 13 10.68 13 10 13 C9.5875 12.401875 9.175 11.80375 8.75 11.1875 C7.07189103 8.7437058 7.07189103 8.7437058 3.875 7.625 C2.92625 7.08875 1.9775 6.5525 1 6 C0.125 2.8125 0.125 2.8125 0 0 Z " fill="#F5B887" transform="translate(364,159)"/>
<path d="M0 0 C0.33 0.66 0.66 1.32 1 2 C0.06421005 4.35981813 -0.93347808 6.69631264 -2 9 C-1.34 9.33 -0.68 9.66 0 10 C-0.99 10.495 -0.99 10.495 -2 11 C-2.69258229 12.99117408 -3.35747635 14.9921136 -4 17 C-4.66 17.99 -5.32 18.98 -6 20 C-6.66 20 -7.32 20 -8 20 C-7.79503906 19.43152344 -7.59007812 18.86304688 -7.37890625 18.27734375 C-5.70907331 13.4915546 -4.53623064 9.04056799 -4 4 C-3.01 4 -2.02 4 -1 4 C-0.67 2.68 -0.34 1.36 0 0 Z " fill="#B29460" transform="translate(236,112)"/>
<path d="M0 0 C1.2065625 0.0309375 1.2065625 0.0309375 2.4375 0.0625 C-1.77183853 3.57028211 -6.9880442 7.0625 -12.5625 7.0625 C-12.25 5.1875 -12.25 5.1875 -11.5625 3.0625 C-8.29183122 0.88205415 -7.30831273 0.96392598 -3.5625 1.0625 C-2.5625 0.0625 -2.5625 0.0625 0 0 Z " fill="#F8B270" transform="translate(333.5625,392.9375)"/>
<path d="M0 0 C2.77227006 3.91379303 1.75296137 7.57203452 1 12 C0.64455053 14.33313826 0.29044777 16.66648198 -0.0625 19 C-0.37389057 21.00017303 -0.6860122 23.00023304 -1 25 C-1.33 25 -1.66 25 -2 25 C-2.02685938 22.85423363 -2.04633088 20.70837355 -2.0625 18.5625 C-2.07410156 17.36753906 -2.08570313 16.17257812 -2.09765625 14.94140625 C-2 12 -2 12 -1 11 C-1 9.906875 -1 8.81375 -1 7.6875 C-1 4.78343843 -0.86909697 2.71592803 0 0 Z " fill="#D9A65F" transform="translate(255,365)"/>
<path d="M0 0 C-0.33 1.65 -0.66 3.3 -1 5 C-1.94875 5.226875 -2.8975 5.45375 -3.875 5.6875 C-7.19323388 6.69083714 -7.19323388 6.69083714 -8.375 9.625 C-8.58125 10.40875 -8.7875 11.1925 -9 12 C-9.93297997 9.48095407 -10.01980572 8.09022605 -9.4375 5.4375 C-7.36368456 1.92103034 -4.15071125 0 0 0 Z " fill="#DDA360" transform="translate(294,287)"/>
<path d="M0 0 C0.66 0 1.32 0 2 0 C0.6549765 4.40189509 -1.12742263 6.51048598 -5 9 C-6.32 9 -7.64 9 -9 9 C-9 9.66 -9 10.32 -9 11 C-9.66 11 -10.32 11 -11 11 C-11.33 11.66 -11.66 12.32 -12 13 C-12.66 12.34 -13.32 11.68 -14 11 C-12.68 10.67 -11.36 10.34 -10 10 C-10 9.34 -10 8.68 -10 8 C-8.01399663 6.6459068 -6.01182457 5.31542376 -4 4 C-3.2575 3.2575 -2.515 2.515 -1.75 1.75 C-0.88375 0.88375 -0.88375 0.88375 0 0 Z " fill="#DA9E5D" transform="translate(312,272)"/>
<path d="M0 0 C0.8813576 3.5254304 1.0479061 5.22995685 0.625 8.6875 C0.53476562 9.47511719 0.44453125 10.26273437 0.3515625 11.07421875 C0 13 0 13 -1 14 C-0.34 14.66 0.32 15.32 1 16 C-0.32 16.99 -1.64 17.98 -3 19 C-3.66 18.67 -4.32 18.34 -5 18 C-3.35 12.06 -1.7 6.12 0 0 Z " fill="#CE9759" transform="translate(294,259)"/>
<path d="M0 0 C0.66 0 1.32 0 2 0 C2 2.31 2 4.62 2 7 C-0.93720508 8.52299523 -3.9168649 9.80100302 -7 11 C-7.33 10.01 -7.66 9.02 -8 8 C-3.25 5 -3.25 5 -1 5 C-0.67 3.35 -0.34 1.7 0 0 Z " fill="#FCBA57" transform="translate(255,291)"/>
<path d="M0 0 C2.475 0.99 2.475 0.99 5 2 C4.21654285 3.17219543 3.42297164 4.33763668 2.625 5.5 C2.18414062 6.1496875 1.74328125 6.799375 1.2890625 7.46875 C0.65097656 8.22671875 0.65097656 8.22671875 0 9 C-0.66 9 -1.32 9 -2 9 C-2.33 9.99 -2.66 10.98 -3 12 C-3.5534764 9.92446352 -4 8.15634036 -4 6 C-2.66666667 4.66666667 -1.33333333 3.33333333 0 2 C0 1.34 0 0.68 0 0 Z " fill="#ECC063" transform="translate(198,256)"/>
<path d="M0 0 C0.33 0 0.66 0 1 0 C3.2358036 6.58973693 2.85404189 9.77998045 0 16 C-0.67735217 17.99640639 -1.34838935 19.99504414 -2 22 C-3.04239682 18.87280954 -2.97104316 17.70741726 -2.44140625 14.55078125 C-2.30283203 13.70322266 -2.16425781 12.85566406 -2.02148438 11.98242188 C-1.87001953 11.10134766 -1.71855469 10.22027344 -1.5625 9.3125 C-1.41490234 8.41982422 -1.26730469 7.52714844 -1.11523438 6.60742188 C-0.74992619 4.40378863 -0.37795112 2.201494 0 0 Z " fill="#B48855" transform="translate(290,231)"/>
<path d="M0 0 C1.59412714 4.08695684 0.50750859 7.97672124 -0.3125 12.125 C-0.44333984 12.85332031 -0.57417969 13.58164063 -0.70898438 14.33203125 C-1.74444643 19.74444643 -1.74444643 19.74444643 -4 22 C-5.45988598 12.9416713 -5.45988598 12.9416713 -3.6875 9.3125 C-3.130625 8.549375 -2.57375 7.78625 -2 7 C-1.27833809 4.68308546 -0.59940471 2.35151077 0 0 Z " fill="#DAB363" transform="translate(181,226)"/>
<path d="M0 0 C0.33 0 0.66 0 1 0 C1.70048208 7.42511009 -0.62918387 12.4509858 -4 19 C-4.66 19 -5.32 19 -6 19 C-4.12275039 12.62267685 -2.14328358 6.29304541 0 0 Z " fill="#D4935B" transform="translate(336,232)"/>
<path d="M0 0 C1.65 0 3.3 0 5 0 C5 1.32 5 2.64 5 4 C-2.26 3.67 -9.52 3.34 -17 3 C-17 2.67 -17 2.34 -17 2 C-11.39 2 -5.78 2 0 2 C0 1.34 0 0.68 0 0 Z " fill="#FABE61" transform="translate(237,409)"/>
<path d="M0 0 C0.33 0 0.66 0 1 0 C1.03738281 0.68707031 1.07476562 1.37414062 1.11328125 2.08203125 C1.17902344 2.98308594 1.24476563 3.88414062 1.3125 4.8125 C1.37050781 5.70582031 1.42851562 6.59914063 1.48828125 7.51953125 C2.06313581 10.30604 2.8206856 11.24135754 5 13 C4.67 13.66 4.34 14.32 4 15 C5.32 15.33 6.64 15.66 8 16 C6.02 16 4.04 16 2 16 C-1.06475363 10.23826317 -1.19937786 6.37259801 0 0 Z " fill="#E1B164" transform="translate(228,278)"/>
<path d="M0 0 C0.33 0 0.66 0 1 0 C1 5.28 1 10.56 1 16 C0.34 16 -0.32 16 -1 16 C-1.99 18.475 -1.99 18.475 -3 21 C-3.66 21 -4.32 21 -5 21 C-4.30058404 17.85262818 -3.23921302 14.97411124 -2 12 C-1.67 12 -1.34 12 -1 12 C-0.67 8.04 -0.34 4.08 0 0 Z " fill="#F7985C" transform="translate(413,270)"/>
<path d="M0 0 C0.21824777 6.0018137 -0.4943096 11.19233704 -2 17 C-2.33 17 -2.66 17 -3 17 C-2.67 12.38 -2.34 7.76 -2 3 C-3.98 3 -5.96 3 -8 3 C-2 0 -2 0 0 0 Z " fill="#D2A061" transform="translate(269,298)"/>
<path d="M0 0 C0.66 0 1.32 0 2 0 C1.57045059 6.25107435 0.98598493 12.04204521 -1 18 C-1.33 18 -1.66 18 -2 18 C-1.85946128 15.37461716 -1.71281053 12.74982573 -1.5625 10.125 C-1.52318359 9.37863281 -1.48386719 8.63226563 -1.44335938 7.86328125 C-1.11328125 2.2265625 -1.11328125 2.2265625 0 0 Z " fill="#F4B58B" transform="translate(412,286)"/>
<path d="M0 0 C0.99 0 1.98 0 3 0 C1.40956621 5.08938811 -1.7446951 8.87456643 -5 13 C-6.2077558 9.37673261 -5.54311128 8.35853631 -4 5 C-3.01 5 -2.02 5 -1 5 C-0.67 3.35 -0.34 1.7 0 0 Z " fill="#E8AD65" transform="translate(273,245)"/>
<path d="M0 0 C0.33 0 0.66 0 1 0 C1.25376143 5.07522852 0.47180796 9.17574056 -1 14 C-1.99 14.495 -1.99 14.495 -3 15 C-3.66 15.99 -4.32 16.98 -5 18 C-4.42934122 11.58008874 -2.32655091 5.98410537 0 0 Z " fill="#F9E695" transform="translate(94,215)"/>
<path d="M0 0 C4.10958767 1.45044271 7.43258745 3.51110752 11 6 C7.86650268 7.04449911 7.01031744 6.93423645 4 6 C4 5.34 4 4.68 4 4 C2.68 4.33 1.36 4.66 0 5 C0 3.35 0 1.7 0 0 Z M2 6 C4 7 4 7 4 7 Z " fill="#F7BB7F" transform="translate(336,140)"/>
<path d="M0 0 C0.33 0 0.66 0 1 0 C1.33 3.3 1.66 6.6 2 10 C1.01 10.33 0.02 10.66 -1 11 C-1 12.98 -1 14.96 -1 17 C-1.33 17 -1.66 17 -2 17 C-2 14.03 -2 11.06 -2 8 C-2.66 7.67 -3.32 7.34 -4 7 C-3.34 7 -2.68 7 -2 7 C-1.22227595 4.66682784 -0.57584432 2.38564077 0 0 Z " fill="#9D8463" transform="translate(261,404)"/>
<path d="M0 0 C2.39511469 4.34114537 2.02977875 7.23727328 1 12 C0.01 12 -0.98 12 -2 12 C-1.33333333 8 -0.66666667 4 0 0 Z M3 2 C3.66 2.66 4.32 3.32 5 4 C4.01 3.67 3.02 3.34 2 3 C2.33 2.67 2.66 2.34 3 2 Z " fill="#E1AF58" transform="translate(202,181)"/>
<path d="M0 0 C2.1875 0.3125 2.1875 0.3125 4 1 C5.6290678 5.79137588 6.20577428 9.05632546 5 14 C4.67 14 4.34 14 4 14 C3.34 10.37 2.68 6.74 2 3 C0.35 3 -1.3 3 -3 3 C-1.75 1.4375 -1.75 1.4375 0 0 Z " fill="#CEA560" transform="translate(211,264)"/>
<path d="M0 0 C4.29 0 8.58 0 13 0 C13.33 0.99 13.66 1.98 14 3 C14.66 3.28875 15.32 3.5775 16 3.875 C18 5 18 5 18.75 7.625 C18.87375 8.800625 18.87375 8.800625 19 10 C18.443125 9.236875 17.88625 8.47375 17.3125 7.6875 C13.46642306 3.2177349 10.47936341 1.90884137 4.6875 1.3125 C3.12585389 1.19623146 1.5634915 1.08804127 0 1 C0 0.67 0 0.34 0 0 Z " fill="#E7A362" transform="translate(316,204)"/>
<path d="M0 0 C1.32 0 2.64 0 4 0 C4 0.99 4 1.98 4 3 C1.03 4.65 -1.94 6.3 -5 8 C-5 7.01 -5 6.02 -5 5 C-4.01 5 -3.02 5 -2 5 C-1.7834375 4.0409375 -1.7834375 4.0409375 -1.5625 3.0625 C-1 1 -1 1 0 0 Z " fill="#F8B984" transform="translate(350,380)"/>
<path d="M0 0 C1 2 1 2 0.25 5.5625 C-0.1625 6.696875 -0.575 7.83125 -1 9 C-1.99 9.33 -2.98 9.66 -4 10 C-4.66 9.34 -5.32 8.68 -6 8 C-6 5 -6 5 -4.6875 3.61328125 C-3.125 2.40885417 -1.5625 1.20442708 0 0 Z " fill="#FDC35D" transform="translate(215,165)"/>
<path d="M0 0 C-0.66 2.97 -1.32 5.94 -2 9 C-2.33 9 -2.66 9 -3 9 C-3 6.69 -3 4.38 -3 2 C-6.3 2.33 -9.6 2.66 -13 3 C-8.83099908 0.22066605 -4.8978425 -1.63261417 0 0 Z " fill="#F1CF8D" transform="translate(208,124)"/>
<path d="M0 0 C5.06998019 0.65419099 9.41990777 2.8546409 14 5 C14 5.33 14 5.66 14 6 C11.69 6 9.38 6 7 6 C6.67 5.01 6.34 4.02 6 3 C4.35 3 2.7 3 1 3 C0.67 2.01 0.34 1.02 0 0 Z " fill="#F7C594" transform="translate(314,130)"/>
<path d="M0 0 C0.66 0.33 1.32 0.66 2 1 C2.42765417 7.41481258 0.85743168 12.88595404 -1 19 C-2.19280644 15.49613109 -1.77953606 13.01849377 -1 9.4375 C-0.04311201 5.19240564 -0.04311201 5.19240564 -1 1 C-0.67 0.67 -0.34 0.34 0 0 Z " fill="#2C1709" transform="translate(275,260)"/>
<path d="M0 0 C1.21386936 3.64160808 0.6674695 4.33165469 -0.9375 7.6875 C-1.31777344 8.49574219 -1.69804687 9.30398438 -2.08984375 10.13671875 C-2.39019531 10.75160156 -2.69054687 11.36648438 -3 12 C-3.66 11.67 -4.32 11.34 -5 11 C-4.50769231 4.6 -4.50769231 4.6 -1.9375 1.5625 C-0.9784375 0.7890625 -0.9784375 0.7890625 0 0 Z " fill="#F99957" transform="translate(405,312)"/>
<path d="M0 0 C0.6875 1.6875 0.6875 1.6875 1 4 C-0.1875 6.75 -0.1875 6.75 -2 9 C-3.32 9 -4.64 9 -6 9 C-6 8.34 -6 7.68 -6 7 C-5.34 7 -4.68 7 -4 7 C-3.71125 6.401875 -3.4225 5.80375 -3.125 5.1875 C-2 3 -2 3 0 0 Z " fill="#FAE192" transform="translate(121,172)"/>
<path d="M0 0 C1.32 0.33 2.64 0.66 4 1 C4.33 2.32 4.66 3.64 5 5 C5.66 5 6.32 5 7 5 C7.33 6.65 7.66 8.3 8 10 C3.92236229 7.13463296 1.97322935 4.56958375 0 0 Z " fill="#F8E59D" transform="translate(112,348)"/>
<path d="M0 0 C1.1875 1.5 1.1875 1.5 2 4 C1.42461199 6.88263694 0.54901123 9.49775109 -1 12 C-3.1171875 13.2421875 -3.1171875 13.2421875 -5 14 C-4.72285156 13.32453125 -4.44570312 12.6490625 -4.16015625 11.953125 C-3.79792969 11.06109375 -3.43570313 10.1690625 -3.0625 9.25 C-2.52302734 7.92742187 -2.52302734 7.92742187 -1.97265625 6.578125 C-1.14643424 4.38813896 -0.50630057 2.28101729 0 0 Z " fill="#E5BF69" transform="translate(169,337)"/>
<path d="M0 0 C0.66 0 1.32 0 2 0 C2 0.99 2 1.98 2 3 C0.25 4.60546875 0.25 4.60546875 -2 6.1875 C-2.7425 6.71730469 -3.485 7.24710937 -4.25 7.79296875 C-4.8275 8.19128906 -5.405 8.58960938 -6 9 C-6.33 8.01 -6.66 7.02 -7 6 C-2.25 2 -2.25 2 0 2 C0 1.34 0 0.68 0 0 Z " fill="#E5B062" transform="translate(245,283)"/>
<path d="M0 0 C0.33 0.99 0.66 1.98 1 3 C-1.64 5.97 -4.28 8.94 -7 12 C-7.66 11.67 -8.32 11.34 -9 11 C-6.03 7.37 -3.06 3.74 0 0 Z " fill="#2E1B09" transform="translate(258,271)"/>
<path d="M0 0 C0.99 0 1.98 0 3 0 C2.67 1.65 2.34 3.3 2 5 C1.01 5.33 0.02 5.66 -1 6 C-2.66710346 7.49985609 -2.66710346 7.49985609 -4 9 C-4 7.35 -4 5.7 -4 4 C-3.01 3.67 -2.02 3.34 -1 3 C-0.67 2.01 -0.34 1.02 0 0 Z " fill="#F9DD65" transform="translate(99,210)"/>
<path d="M0 0 C0 2 0 2 -1.20703125 3.55078125 C-3.36220519 5.2927628 -4.97895327 5.67719409 -7.6875 6.1875 C-8.49574219 6.34605469 -9.30398437 6.50460938 -10.13671875 6.66796875 C-11.05904297 6.83232422 -11.05904297 6.83232422 -12 7 C-8.8380314 3.47318887 -4.98182478 0 0 0 Z " fill="#F9DE98" transform="translate(168,138)"/>
<path d="M0 0 C0 0.66 0 1.32 0 2 C-1.06541016 2.30744141 -1.06541016 2.30744141 -2.15234375 2.62109375 C-3.53099609 3.02521484 -3.53099609 3.02521484 -4.9375 3.4375 C-6.31228516 3.83775391 -6.31228516 3.83775391 -7.71484375 4.24609375 C-9.9402493 4.79026051 -9.9402493 4.79026051 -11 6 C-12.66617115 6.04063832 -14.33388095 6.042721 -16 6 C-11.74276476 2.11295913 -5.72456601 0 0 0 Z " fill="#F9DEA1" transform="translate(195,127)"/>
<path d="M0 0 C2 1 2 1 3 3 C3 3.99 3 4.98 3 6 C1.68 5.01 0.36 4.02 -1 3 C-0.67 2.01 -0.34 1.02 0 0 Z M8 5 C7.67 5.99 7.34 6.98 7 8 C5.35 8 3.7 8 2 8 C3.39277217 5.21445565 4.98851994 5 8 5 Z " fill="#FABE5B" transform="translate(230,285)"/>
<path d="M0 0 C3.68006822 3.38168431 5.9785845 6.42521756 8 11 C7.01 11.495 7.01 11.495 6 12 C5.67 11.01 5.34 10.02 5 9 C4.34 8.67 3.68 8.34 3 8 C2.67 7.01 2.34 6.02 2 5 C1.34 4.67 0.68 4.34 0 4 C0 2.68 0 1.36 0 0 Z " fill="#F3B989" transform="translate(385,181)"/>
<path d="M0 0 C0.33 0.66 0.66 1.32 1 2 C1.66 2 2.32 2 3 2 C3.33 1.34 3.66 0.68 4 0 C4.6875 1.75 4.6875 1.75 5 4 C3.5625 6.25 3.5625 6.25 2 8 C1.34 7.67 0.68 7.34 0 7 C0 4.69 0 2.38 0 0 Z " fill="#FAC15A" transform="translate(226,136)"/>
<path d="M0 0 C0.66 1.32 1.32 2.64 2 4 C1.38125 4.7425 0.7625 5.485 0.125 6.25 C-1.60437281 8.48801188 -2.86106661 10.43739987 -4 13 C-4.33 12.34 -4.66 11.68 -5 11 C-4.00390625 8.3984375 -4.00390625 8.3984375 -2.5625 5.375 C-2.08941406 4.37210938 -1.61632812 3.36921875 -1.12890625 2.3359375 C-0.75636719 1.56507813 -0.38382812 0.79421875 0 0 Z " fill="#291306" transform="translate(298,226)"/>
<path d="M0 0 C0.66 0.33 1.32 0.66 2 1 C1.19185349 2.33597652 0.37836819 3.668725 -0.4375 5 C-0.88996094 5.7425 -1.34242188 6.485 -1.80859375 7.25 C-2.20175781 7.8275 -2.59492188 8.405 -3 9 C-3.33 9 -3.66 9 -4 9 C-4.125 3.25 -4.125 3.25 -3 1 C-2.01 0.67 -1.02 0.34 0 0 Z " fill="#E5A562" transform="translate(303,216)"/>
<path d="M0 0 C1.5625 1.8125 1.5625 1.8125 3 4 C2.67 4.99 2.34 5.98 2 7 C1.34 6.67 0.68 6.34 0 6 C-0.33 7.32 -0.66 8.64 -1 10 C-2.54578627 6.90842747 -1.60277633 4.31526981 -1 1 C-0.67 0.67 -0.34 0.34 0 0 Z " fill="#F1AD5F" transform="translate(299,186)"/>
<path d="M0 0 C0.33 0 0.66 0 1 0 C1 1.65 1 3.3 1 5 C0.34 5 -0.32 5 -1 5 C-1.103125 5.78375 -1.20625 6.5675 -1.3125 7.375 C-2 10 -2 10 -5 12 C-3.68938409 7.76570244 -2.05643741 3.92592596 0 0 Z " fill="#261706" transform="translate(220,126)"/>
<path d="M0 0 C2.97 0.33 5.94 0.66 9 1 C9.33 2.32 9.66 3.64 10 5 C6.08788267 3.84414715 3.1254959 2.64465038 0 0 Z " fill="#F8DE98" transform="translate(166,394)"/>
<path d="M0 0 C0 0.66 0 1.32 0 2 C-1.53125 3.2890625 -1.53125 3.2890625 -3.5 4.625 C-4.1496875 5.07101562 -4.799375 5.51703125 -5.46875 5.9765625 C-5.9740625 6.31429688 -6.479375 6.65203125 -7 7 C-6.67 5.02 -6.34 3.04 -6 1 C-3 0 -3 0 0 0 Z " fill="#F6BA8B" transform="translate(370,368)"/>
<path d="M0 0 C1.875 0.625 1.875 0.625 4 2 C5.25 5.125 5.25 5.125 6 8 C5.01 8.495 5.01 8.495 4 9 C0 2.25 0 2.25 0 0 Z " fill="#F9E393" transform="translate(100,329)"/>
<path d="M0 0 C0.33 0 0.66 0 1 0 C1.39036513 1.60049704 1.76178619 3.20562371 2.125 4.8125 C2.33382812 5.70582031 2.54265625 6.59914063 2.7578125 7.51953125 C3 10 3 10 1 13 C-0.32229189 10.35541621 -0.09677194 8.32238699 -0.0625 5.375 C-0.05347656 4.37210937 -0.04445312 3.36921875 -0.03515625 2.3359375 C-0.02355469 1.56507813 -0.01195312 0.79421875 0 0 Z " fill="#D7AD5D" transform="translate(217,283)"/>
<path d="M0 0 C0.33 0.66 0.66 1.32 1 2 C1.66 2 2.32 2 3 2 C1.77263971 6.15414253 0.672336 8.43688534 -2 12 C-1.34 8.04 -0.68 4.08 0 0 Z " fill="#BEA468" transform="translate(177,288)"/>
<path d="M0 0 C1.32 0.33 2.64 0.66 4 1 C3.625 3.9375 3.625 3.9375 3 7 C2.01 7.495 2.01 7.495 1 8 C-0.35439668 5.29120665 -0.06501451 2.99066732 0 0 Z " fill="#EFAD66" transform="translate(291,230)"/>
<path d="M0 0 C0.66 0.33 1.32 0.66 2 1 C1.67 1.66 1.34 2.32 1 3 C0.34 3 -0.32 3 -1 3 C-1.33 3.99 -1.66 4.98 -2 6 C-3.65 6 -5.3 6 -7 6 C-4.74259377 3.66475218 -2.7194239 1.81294927 0 0 Z " fill="#F9D88A" transform="translate(154,145)"/>
<path d="M0 0 C1.12377697 3.30435084 0.89554742 5.0506862 -0.4375 8.25 C-0.72496094 8.95640625 -1.01242188 9.6628125 -1.30859375 10.390625 C-1.53675781 10.92171875 -1.76492187 11.4528125 -2 12 C-3.1171875 10.265625 -3.1171875 10.265625 -4 8 C-3.3203125 5.859375 -3.3203125 5.859375 -2.125 3.75 C-1.73570312 3.04359375 -1.34640625 2.3371875 -0.9453125 1.609375 C-0.63335937 1.07828125 -0.32140625 0.5471875 0 0 Z " fill="#EEC769" transform="translate(160,320)"/>
<path d="M0 0 C2 3 2 3 1.625 5.6875 C1.41875 6.450625 1.2125 7.21375 1 8 C0.34 8 -0.32 8 -1 8 C-1.625 5.6875 -1.625 5.6875 -2 3 C-1.34 2.01 -0.68 1.02 0 0 Z " fill="#EFAA61" transform="translate(285,298)"/>
<path d="M0 0 C4.75 0.875 4.75 0.875 7 2 C7 4.31 7 6.62 7 9 C6.6596875 8.1646875 6.6596875 8.1646875 6.3125 7.3125 C4.64103234 4.36753316 2.44723648 2.31843456 0 0 Z " fill="#482910" transform="translate(291,185)"/>
<path d="M0 0 C-2.85306797 2.32472205 -5.54074837 3.7508258 -9 5 C-9 4.01 -9 3.02 -9 2 C-5.86501708 0.14223235 -3.62528568 -0.20140476 0 0 Z " fill="#F7C898" transform="translate(336,393)"/>
<path d="M0 0 C1.98362069 2.91708924 1.9876191 4.12380904 1.625 7.75 C1.41875 8.8225 1.2125 9.895 1 11 C-1.78637633 6.8204355 -0.79562512 4.85331323 0 0 Z " fill="#D7A15E" transform="translate(268,370)"/>
<path d="M0 0 C0.66 0.66 1.32 1.32 2 2 C1.01 2.33 0.02 2.66 -1 3 C-0.67 3.99 -0.34 4.98 0 6 C-0.99 6 -1.98 6 -3 6 C-3.33 4.68 -3.66 3.36 -4 2 C-2.68 1.34 -1.36 0.68 0 0 Z " fill="#FADB76" transform="translate(109,335)"/>
<path d="M0 0 C0.66 0 1.32 0 2 0 C2 2.31 2 4.62 2 7 C1.01 7 0.02 7 -1 7 C-0.67 4.69 -0.34 2.38 0 0 Z " fill="#D59858" transform="translate(279,318)"/>
<path d="M0 0 C2.31 1.98 4.62 3.96 7 6 C6.34 6.66 5.68 7.32 5 8 C3.0625 7.375 3.0625 7.375 1 6 C0.25 2.875 0.25 2.875 0 0 Z " fill="#D6A960" transform="translate(221,296)"/>
<path d="M0 0 C0.66 0.33 1.32 0.66 2 1 C-0.475 5.455 -0.475 5.455 -3 10 C-4 6 -4 6 -3.0625 3.75 C-2.711875 3.1725 -2.36125 2.595 -2 2 C-1.34 2 -0.68 2 0 2 C0 1.34 0 0.68 0 0 Z " fill="#251304" transform="translate(193,283)"/>
<path d="M0 0 C0.99 0.66 1.98 1.32 3 2 C-1.95 4.475 -1.95 4.475 -7 7 C-4.91100178 2.82200357 -3.94455388 2.07608099 0 0 Z " fill="#1D0C03" transform="translate(299,280)"/>
<path d="M0 0 C1.0725 0.2475 2.145 0.495 3.25 0.75 C3.25 1.08 3.25 1.41 3.25 1.75 C-0.38 2.41 -4.01 3.07 -7.75 3.75 C-5.15187156 0.32047046 -4.43092205 -0.2953948 0 0 Z " fill="#E4B767" transform="translate(211.75,253.25)"/>
<path d="M0 0 C1.13643966 3.40931897 0.86747764 4.00335456 -0.4375 7.1875 C-0.86869141 8.26064453 -0.86869141 8.26064453 -1.30859375 9.35546875 C-1.53675781 9.89816406 -1.76492187 10.44085938 -2 11 C-3.21563174 7.05347724 -2.53534125 4.83835312 -1 1 C-0.67 0.67 -0.34 0.34 0 0 Z " fill="#2F1E07" transform="translate(168,338)"/>
<path d="M0 0 C0.66 0.66 1.32 1.32 2 2 C0.02 4.64 -1.96 7.28 -4 10 C-4.66 9.67 -5.32 9.34 -6 9 C-4.02 6.03 -2.04 3.06 0 0 Z " fill="#2C1C09" transform="translate(193,269)"/>
<path d="M0 0 C0.66 0.33 1.32 0.66 2 1 C0.5901639 5.2295083 -2.16421847 6.08210924 -6 8 C-4.55746343 4.63408134 -2.66735273 2.48952921 0 0 Z " fill="#FCEAA9" transform="translate(129,164)"/>
<path d="M0 0 C3.37503669 1.1858237 5.64722731 2.27573689 8 5 C5.69 4.67 3.38 4.34 1 4 C0.67 2.68 0.34 1.36 0 0 Z " fill="#F4B886" transform="translate(347,147)"/>
<path d="M0 0 C0.99 0 1.98 0 3 0 C2.74438677 2.3431213 2.40729228 4.67843403 2 7 C1.01 7.495 1.01 7.495 0 8 C0 5.36 0 2.72 0 0 Z " fill="#EBBD65" transform="translate(191,228)"/>
<path d="M0 0 C2.29633824 3.44450737 2.54016485 5.93812283 3 10 C2.67 9.34 2.34 8.68 2 8 C1.34 8 0.68 8 0 8 C0 5.36 0 2.72 0 0 Z " fill="#F6B58D" transform="translate(408,223)"/>
<path d="M0 0 C0.66 0.33 1.32 0.66 2 1 C0.6875 3.5 0.6875 3.5 -1 6 C-1.99 6 -2.98 6 -4 6 C-3.6875 4.125 -3.6875 4.125 -3 2 C-2.01 1.34 -1.02 0.68 0 0 Z " fill="#F9E18E" transform="translate(99,208)"/>
</svg>
